<?xml version="1.0" standalone="no"?><!DOCTYPE svg PUBLIC "-//W3C//DTD SVG 1.1//EN" "http://www.w3.org/Graphics/SVG/1.1/DTD/svg11.dtd"><svg t="1612331259812" class="icon" viewBox="0 0 1024 1024" version="1.1" xmlns="http://www.w3.org/2000/svg" p-id="3614" width="200" height="200"><path d="M594.048 937.472c33.6 35.072-21.504 88.896-59.456 55.04-38.528-34.56-77.184-69.056-115.776-103.616-16.192-14.464-15.744-42.688-0.384-57.344 38.08-36.608 76.096-73.216 114.176-109.76 36.608-35.008 91.648 17.216 60.864 53.504 189.824-22.016 258.112-230.336 155.008-379.968-59.648-86.144 78.08-163.136 137.088-77.696C1065.216 577.856 895.808 904.384 594.048 937.472L594.048 937.472zM157.44 706.112C-22.272 445.952 147.072 119.68 448.64 86.464 415.104 51.456 470.208-2.432 508.096 31.488c38.592 34.432 77.12 68.928 115.84 103.552C640 149.376 639.68 177.6 624.32 192.384 586.24 228.928 548.288 265.408 510.144 301.952c-36.48 35.072-91.584-17.216-60.8-53.376-189.76 21.888-258.112 230.272-154.88 379.84C353.984 714.432 216.384 791.488 157.44 706.112L157.44 706.112z" p-id="3615" fill="#1296db"></path></svg>
