<?xml version="1.0" standalone="no"?><!DOCTYPE svg PUBLIC "-//W3C//DTD SVG 1.1//EN" "http://www.w3.org/Graphics/SVG/1.1/DTD/svg11.dtd"><svg t="1634885973943" class="icon" viewBox="0 0 1024 1024" version="1.1" xmlns="http://www.w3.org/2000/svg" p-id="4464" xmlns:xlink="http://www.w3.org/1999/xlink" width="200" height="200"><defs><style type="text/css"></style></defs><path d="M567.383372 836.902781C566.140687 847.684903 569.101201 858.869069 577.434502 867.129271 577.507601 867.20237 577.653799 867.23892 577.726898 867.348568 584.378919 874.219886 593.662508 878.605834 604.006035 878.605834 615.372949 878.605834 625.131683 873.08685 631.856803 864.936297L994.940173 466.838445C1002.652131 459.163036 1005.941591 448.965708 1005.429897 438.951127 1005.941591 428.899997 1002.652131 418.739219 994.940173 411.06381L629.846577 10.772984C615.372949-3.590995 591.908129-3.590995 577.434502 10.772984 569.101201 19.033186 566.140687 30.217352 567.383372 40.999474L567.383372 256.568803C264.241287 256.568803 18.518568 502.291522 18.518568 805.433607 18.518568 883.17453 34.892772 957.041199 64.059325 1024.03655 107.370558 795.419026 325.534906 621.772047 566.762029 621.772047 566.762029 634.271998 567.383372 836.902781 567.383372 836.902781ZM640.592149 549.294261 640.592149 745.821268 920.452161 438.951127 640.592149 132.044438 640.592149 329.74103C640.592149 329.74103 549.218238 328.790741 530.212465 329.375534 272.099443 337.379889 92.860381 631.311483 91.690795 768.810943 170.564754 667.568651 377.764233 548.672919 530.212465 548.672919 554.15243 548.672919 640.592149 549.294261 640.592149 549.294261Z" fill="#d4237a" p-id="4465"></path></svg>