<?xml version="1.0"?>
<svg width="290" height="300" xmlns="http://www.w3.org/2000/svg" xmlns:svg="http://www.w3.org/2000/svg">
 <!-- Created with SVG-edit - https://github.com/SVG-Edit/svgedit-->

 <g class="layer">
  <title>Layer 1</title>
  <rect fill="#63afe7" height="272.00001" id="svg_1" stroke="#000000" stroke-opacity="0" stroke-width="5" transform="matrix(1, 0, 0, 1, 0, 0)" width="180" x="55.25432" y="9.340163"/>
  <rect fill="#323232" height="22.999999" id="svg_20" stroke="#000000" stroke-opacity="0" stroke-width="5" width="24.333332" x="159.133321" y="221.966684"/>
  <rect fill="#323232" height="4.999999" id="svg_21" stroke="#000000" stroke-opacity="0" stroke-width="5" width="8.33333" x="86.799977" y="227.299985"/>
  <rect fill="#323232" height="4.999999" id="svg_22" stroke="#000000" stroke-opacity="0" stroke-width="5" width="8.33333" x="98.799993" y="226.96668"/>
  <rect fill="#323232" height="4.999999" id="svg_23" stroke="#000000" stroke-opacity="0" stroke-width="5" width="8.33333" x="88.799993" y="256.96668"/>
  <rect fill="#323232" height="4.999999" id="svg_24" stroke="#000000" stroke-opacity="0" stroke-width="5" width="8.33333" x="88.79999" y="248.300008"/>
  <g id="svg_41">
   <circle cx="63.633295" cy="17.734865" fill="#323232" id="svg_25" r="5.734862" stroke="#000000" stroke-opacity="0" stroke-width="5"/>
   <circle cx="63.699961" cy="17.734865" fill="#f0f0f0" id="svg_27" r="3.349701" stroke="#000000" stroke-opacity="0" stroke-width="5"/>
  </g>
  <g id="svg_42">
   <circle cx="63.633305" cy="32.734867" fill="#323232" id="svg_43" r="5.734856" stroke="#000000" stroke-opacity="0" stroke-width="5"/>
   <circle cx="63.699971" cy="32.734867" fill="#f0f0f0" id="svg_44" r="3.349678" stroke="#000000" stroke-opacity="0" stroke-width="5"/>
  </g>
  <g id="svg_45">
   <circle cx="63.633323" cy="47.734873" fill="#323232" id="svg_46" r="5.734879" stroke="#000000" stroke-opacity="0" stroke-width="5"/>
   <circle cx="63.699989" cy="47.734873" fill="#f0f0f0" id="svg_47" r="3.349701" stroke="#000000" stroke-opacity="0" stroke-width="5"/>
  </g>
  <g id="svg_48">
   <circle cx="63.633323" cy="62.734878" fill="#323232" id="svg_49" r="5.734879" stroke="#000000" stroke-opacity="0" stroke-width="5"/>
   <circle cx="63.699989" cy="62.734878" fill="#f0f0f0" id="svg_50" r="3.349701" stroke="#000000" stroke-opacity="0" stroke-width="5"/>
  </g>
  <g id="svg_51">
   <circle cx="63.633311" cy="77.734878" fill="#323232" id="svg_52" r="5.734879" stroke="#000000" stroke-opacity="0" stroke-width="5"/>
   <circle cx="63.699977" cy="77.734878" fill="#f0f0f0" id="svg_53" r="3.349701" stroke="#000000" stroke-opacity="0" stroke-width="5"/>
  </g>
  <g id="svg_54">
   <circle cx="63.633311" cy="92.734878" fill="#323232" id="svg_55" r="5.734879" stroke="#000000" stroke-opacity="0" stroke-width="5"/>
   <circle cx="63.699977" cy="92.734878" fill="#f0f0f0" id="svg_56" r="3.349701" stroke="#000000" stroke-opacity="0" stroke-width="5"/>
  </g>
  <g id="svg_57">
   <circle cx="63.633295" cy="107.734862" fill="#323232" id="svg_58" r="5.734863" stroke="#000000" stroke-opacity="0" stroke-width="5"/>
   <circle cx="63.699961" cy="107.734863" fill="#f0f0f0" id="svg_59" r="3.349701" stroke="#000000" stroke-opacity="0" stroke-width="5"/>
  </g>
  <g id="svg_60">
   <rect fill="#ffffff" height="99.73753" id="svg_7" stroke="#000000" stroke-opacity="0" stroke-width="5" width="83.33333" x="102.69555" y="48.167973"/>
   <text fill="#000000" font-family="Helvetica" font-size="13" id="svg_2" stroke="#000000" stroke-opacity="0" stroke-width="0" text-anchor="middle" x="144.266666" xml:space="preserve" y="134.733358">LuatOS</text>
   <path d="m146.25557,107.31754c-0.54695,0.05148 -1.10677,0.08687 -1.68267,0.08687l0,0c-0.51477,0 -1.01507,-0.02735 -1.5025,-0.06917l0,0l-4.22436,5.42926l-1.0392,-0.29439c-1.21937,-0.34265 -2.40335,-0.77216 -3.54229,-1.28694l0,0l-0.98772,-0.44721l0.25417,-6.82075c-0.89764,-0.62738 -1.73576,-1.32715 -2.51113,-2.09449l0,0l-6.6792,1.43493l-0.60968,-0.89602c-0.71586,-1.05207 -1.32555,-2.15401 -1.86606,-3.26882l0,0l-0.46973,-0.97324l4.53484,-5.01905c-0.28313,-1.06333 -0.47134,-2.16044 -0.56786,-3.27847l0,0l-6.00999,-3.17712l0.10939,-1.0762c0.12869,-1.28854 0.37804,-2.52078 0.67564,-3.70476l0,0l0.26543,-1.05046l6.70333,-0.9282c0.47777,-1.00864 1.0408,-1.96419 1.67462,-2.86343l0,0l-2.55778,-6.29633l0.77216,-0.75608c0.90729,-0.88476 1.87892,-1.68588 2.89238,-2.41783l0,0l0.87834,-0.63381l5.78638,3.63398c0.97485,-0.44882 1.99475,-0.81881 3.05164,-1.10194l0,0l2.09771,-6.50867l1.08102,-0.08204c0.58234,-0.04344 1.20811,-0.0933 1.88858,-0.0933l0,0c0.67886,0 1.30302,0.04986 1.88536,0.0933l0,0l1.08102,0.08204l2.12023,6.57624c1.01668,0.28312 2.00118,0.64507 2.94547,1.08424l0,0l5.86682,-3.68546l0.88155,0.63382c1.01346,0.73194 1.9867,1.53467 2.89238,2.41461l0,0l0.77538,0.75607l-2.63661,6.48455c0.5743,0.8349 1.09229,1.71805 1.53467,2.64787l0,0l6.91245,0.95715l0.26865,1.05046c0.30243,1.18238 0.55016,2.41462 0.67564,3.70477l0,0l0.10939,1.0762l-6.21911,3.28812c-0.09331,1.01989 -0.259,2.0237 -0.50674,3.00177l0,0l4.68606,5.1767l-0.47134,0.97807c-0.53891,1.11802 -1.14538,2.22318 -1.86445,3.27203l0,0l-0.60969,0.89281l-6.84488,-1.4671c-0.72551,0.72551 -1.51054,1.3931 -2.35027,1.99635l0,0l0.26061,6.95428l-0.98933,0.44721c-1.14055,0.51316 -2.32292,0.94429 -3.54229,1.28693l0,0l-1.04242,0.29439l-4.23401,-5.44373l0,0l0,-0.00001zm5.43247,1.74219c0.36517,-0.12226 0.7239,-0.25256 1.07942,-0.39251l0,0l-0.24452,-6.5682l0.77055,-0.49386c1.15342,-0.74964 2.20388,-1.64728 3.13691,-2.66717l0,0l0.62094,-0.68047l6.4765,1.38667c0.19465,-0.32495 0.38287,-0.65794 0.56465,-0.99737l0,0l-4.43028,-4.8984l0.27508,-0.87511c0.39091,-1.25959 0.61291,-2.61087 0.67886,-4.02168l0,0l0.04022,-0.91855l5.88451,-3.10955c-0.06113,-0.37643 -0.13191,-0.75125 -0.21234,-1.12607l0,0l-6.54729,-0.90568l-0.35229,-0.84777c-0.52604,-1.26602 -1.22259,-2.45161 -2.05427,-3.5455l0,0l-0.55017,-0.72873l2.49022,-6.12581c-0.28795,-0.25256 -0.58395,-0.49869 -0.88799,-0.73677l0,0l-5.55795,3.4892l-0.81881,-0.43112c-1.21293,-0.63864 -2.524,-1.12285 -3.90745,-1.43815l0,0l-0.89442,-0.2043l-2.00762,-6.22555c-0.19465,-0.00965 -0.38447,-0.01448 -0.56947,-0.01448l0,0c-0.18822,0 -0.37804,0.00483 -0.5743,0.01448l0,0l-1.99314,6.18533l-0.90729,0.19304c-1.40758,0.30243 -2.74921,0.79468 -3.99915,1.44137l0,0l-0.8172,0.42469l-5.46787,-3.43451c-0.30243,0.23808 -0.59842,0.48421 -0.88476,0.73677l0,0l2.42426,5.96494l-0.56947,0.73034c-0.88798,1.14054 -1.62636,2.38887 -2.17974,3.7305l0,0l-0.35069,0.85099l-6.33655,0.87672c-0.08043,0.37482 -0.15122,0.74964 -0.21074,1.12607l0,0l5.68021,3.00338l0.03539,0.92499c0.05952,1.49445 0.30887,2.92778 0.73838,4.2678l0,0l0.28152,0.88155l-4.29032,4.74557c0.18017,0.34104 0.36839,0.67403 0.56464,0.99898l0,0l6.29955,-1.35611l0.62738,0.68047c0.96681,1.0569 2.07036,1.97705 3.28651,2.73956l0,0l0.78503,0.49065l-0.23969,6.46685c0.35552,0.13995 0.71586,0.27025 1.08102,0.39251l0,0l3.98789,-5.12844l0.91051,0.11261c0.6869,0.08687 1.35611,0.14317 2.0221,0.14317l0,0c0.71586,0 1.43815,-0.06273 2.17653,-0.1673l0,0l0.91855,-0.12869l4.01845,5.16865l0,0zm1.8178,-13.31656l0.87833,1.34967l-5.57082,3.62434l-1.97705,-3.042l0,0c-0.71908,0.17535 -1.47515,0.2783 -2.26179,0.2783l0,0c-5.44374,0 -9.85471,-4.41258 -9.85471,-9.84988l0,0c0,-5.44373 4.41097,-9.8547 9.85471,-9.8547l0,0c5.4373,0 9.84988,4.41097 9.84988,9.8547l0,0c0,2.23444 -0.75125,4.3048 -2.01084,5.95851l0,0l1.09229,1.68106m-3.7482,0.5196l0.17374,-0.111l-1.58776,-2.44356l0.92016,-0.92016c1.20328,-1.2065 1.94166,-2.85217 1.94166,-4.68445l0,0c-0.00643,-3.66454 -2.97282,-6.63093 -6.63254,-6.63736l0,0c-3.66776,0.00643 -6.63093,2.9696 -6.63737,6.63736l0,0c0.00644,3.65973 2.97282,6.62611 6.63737,6.63255l0,0c0.81881,0 1.60706,-0.16731 2.36957,-0.46008l0,0l1.21615,-0.46652l1.59902,2.45322l0,0z" fill="#a0c9ff" id="svg_3" stroke="#000000" stroke-opacity="0" stroke-width="5"/>
  </g>
  <g id="svg_61">
   <rect fill="#c8c8c8" height="9.428572" id="svg_10" stroke="#000000" stroke-opacity="0" stroke-width="5" width="4.571429" x="86.223805" y="171.21908"/>
   <rect fill="#c8c8c8" height="9.428572" id="svg_12" stroke="#000000" stroke-opacity="0" stroke-width="5" width="4.571429" x="93.938093" y="171.24764"/>
   <rect fill="#c8c8c8" height="9.428572" id="svg_13" stroke="#000000" stroke-opacity="0" stroke-width="5" width="4.571429" x="101.93809" y="171.247638"/>
   <rect fill="#c8c8c8" height="9.428572" id="svg_15" stroke="#000000" stroke-opacity="0" stroke-width="5" width="4.571429" x="111.366664" y="171.247638"/>
   <rect fill="#c8c8c8" height="9.428572" id="svg_19" stroke="#000000" stroke-opacity="0" stroke-width="5" width="4.571429" x="86.223805" y="203.633382"/>
   <rect fill="#c8c8c8" height="9.428572" id="svg_18" stroke="#000000" stroke-opacity="0" stroke-width="5" width="4.571429" x="93.938093" y="203.661943"/>
   <rect fill="#c8c8c8" height="9.428572" id="svg_17" stroke="#000000" stroke-opacity="0" stroke-width="5" width="4.571429" x="101.93809" y="203.66194"/>
   <rect fill="#c8c8c8" height="9.428572" id="svg_16" stroke="#000000" stroke-opacity="0" stroke-width="5" width="4.571429" x="111.366664" y="203.661941"/>
   <rect fill="#323232" height="27" id="svg_5" stroke="#000000" stroke-opacity="0" stroke-width="5" width="33" x="84.480957" y="178.661929"/>
  </g>
  <g id="svg_80">
   <circle cx="63.6333" cy="122.466674" fill="#323232" id="svg_81" r="5.734863" stroke="#000000" stroke-opacity="0" stroke-width="5"/>
   <circle cx="63.699966" cy="122.466674" fill="#f0f0f0" id="svg_82" r="3.349701" stroke="#000000" stroke-opacity="0" stroke-width="5"/>
  </g>
  <g id="svg_77">
   <circle cx="63.633295" cy="137.466675" fill="#323232" id="svg_78" r="5.734863" stroke="#000000" stroke-opacity="0" stroke-width="5"/>
   <circle cx="63.699961" cy="137.466676" fill="#f0f0f0" id="svg_79" r="3.349686" stroke="#000000" stroke-opacity="0" stroke-width="5"/>
  </g>
  <g id="svg_74">
   <circle cx="63.633313" cy="152.466681" fill="#323232" id="svg_75" r="5.734879" stroke="#000000" stroke-opacity="0" stroke-width="5"/>
   <circle cx="63.699979" cy="152.466682" fill="#f0f0f0" id="svg_76" r="3.349701" stroke="#000000" stroke-opacity="0" stroke-width="5"/>
  </g>
  <g id="svg_71">
   <circle cx="63.633313" cy="167.466686" fill="#323232" id="svg_72" r="5.734879" stroke="#000000" stroke-opacity="0" stroke-width="5"/>
   <circle cx="63.699979" cy="167.466687" fill="#f0f0f0" id="svg_73" r="3.349701" stroke="#000000" stroke-opacity="0" stroke-width="5"/>
  </g>
  <g id="svg_68">
   <circle cx="63.633316" cy="182.466686" fill="#323232" id="svg_69" r="5.734879" stroke="#000000" stroke-opacity="0" stroke-width="5"/>
   <circle cx="63.699982" cy="182.466687" fill="#f0f0f0" id="svg_70" r="3.349701" stroke="#000000" stroke-opacity="0" stroke-width="5"/>
  </g>
  <g id="svg_65">
   <circle cx="63.633316" cy="197.466686" fill="#323232" id="svg_66" r="5.734879" stroke="#000000" stroke-opacity="0" stroke-width="5"/>
   <circle cx="63.699982" cy="197.466687" fill="#f0f0f0" id="svg_67" r="3.349701" stroke="#000000" stroke-opacity="0" stroke-width="5"/>
  </g>
  <g id="svg_62">
   <circle cx="63.6333" cy="212.466671" fill="#323232" id="svg_63" r="5.734863" stroke="#000000" stroke-opacity="0" stroke-width="5"/>
   <circle cx="63.699966" cy="212.466671" fill="#f0f0f0" id="svg_64" r="3.349701" stroke="#000000" stroke-opacity="0" stroke-width="5"/>
  </g>
  <g id="svg_101">
   <circle cx="63.633295" cy="227.800017" fill="#323232" id="svg_102" r="5.734863" stroke="#000000" stroke-opacity="0" stroke-width="5"/>
   <circle cx="63.699961" cy="227.800017" fill="#f0f0f0" id="svg_103" r="3.349701" stroke="#000000" stroke-opacity="0" stroke-width="5"/>
  </g>
  <g id="svg_98">
   <circle cx="63.633305" cy="242.800019" fill="#323232" id="svg_99" r="5.734863" stroke="#000000" stroke-opacity="0" stroke-width="5"/>
   <circle cx="63.699971" cy="242.800019" fill="#f0f0f0" id="svg_100" r="3.349686" stroke="#000000" stroke-opacity="0" stroke-width="5"/>
  </g>
  <g id="svg_95">
   <circle cx="63.633323" cy="257.800025" fill="#323232" id="svg_96" r="5.734879" stroke="#000000" stroke-opacity="0" stroke-width="5"/>
   <circle cx="63.699989" cy="257.800025" fill="#f0f0f0" id="svg_97" r="3.349701" stroke="#000000" stroke-opacity="0" stroke-width="5"/>
  </g>
  <g id="svg_92">
   <circle cx="63.633323" cy="272.80003" fill="#323232" id="svg_93" r="5.734879" stroke="#000000" stroke-opacity="0" stroke-width="5"/>
   <circle cx="63.699989" cy="272.80003" fill="#f0f0f0" id="svg_94" r="3.349701" stroke="#000000" stroke-opacity="0" stroke-width="5"/>
  </g>
  <g id="svg_155">
   <circle cx="226.966646" cy="17.934084" fill="#323232" id="svg_156" r="5.734862" stroke="#000000" stroke-opacity="0" stroke-width="5"/>
   <circle cx="227.033312" cy="17.934084" fill="#f0f0f0" id="svg_157" r="3.349701" stroke="#000000" stroke-opacity="0" stroke-width="5"/>
  </g>
  <g id="svg_152">
   <circle cx="226.966657" cy="32.934085" fill="#323232" id="svg_153" r="5.734863" stroke="#000000" stroke-opacity="0" stroke-width="5"/>
   <circle cx="227.033323" cy="32.934086" fill="#f0f0f0" id="svg_154" r="3.34967" stroke="#000000" stroke-opacity="0" stroke-width="5"/>
  </g>
  <g id="svg_149">
   <circle cx="226.966674" cy="47.934091" fill="#323232" id="svg_150" r="5.734879" stroke="#000000" stroke-opacity="0" stroke-width="5"/>
   <circle cx="227.03334" cy="47.934092" fill="#f0f0f0" id="svg_151" r="3.349701" stroke="#000000" stroke-opacity="0" stroke-width="5"/>
  </g>
  <g id="svg_146">
   <circle cx="226.966674" cy="62.934096" fill="#323232" id="svg_147" r="5.734879" stroke="#000000" stroke-opacity="0" stroke-width="5"/>
   <circle cx="227.03334" cy="62.934097" fill="#f0f0f0" id="svg_148" r="3.349701" stroke="#000000" stroke-opacity="0" stroke-width="5"/>
  </g>
  <g id="svg_143">
   <circle cx="226.966662" cy="77.934096" fill="#323232" id="svg_144" r="5.734879" stroke="#000000" stroke-opacity="0" stroke-width="5"/>
   <circle cx="227.033328" cy="77.934097" fill="#f0f0f0" id="svg_145" r="3.349701" stroke="#000000" stroke-opacity="0" stroke-width="5"/>
  </g>
  <g id="svg_140">
   <circle cx="226.966662" cy="92.934096" fill="#323232" id="svg_141" r="5.734879" stroke="#000000" stroke-opacity="0" stroke-width="5"/>
   <circle cx="227.033328" cy="92.934097" fill="#f0f0f0" id="svg_142" r="3.349701" stroke="#000000" stroke-opacity="0" stroke-width="5"/>
  </g>
  <g id="svg_137">
   <circle cx="226.966646" cy="107.934081" fill="#323232" id="svg_138" r="5.734863" stroke="#000000" stroke-opacity="0" stroke-width="5"/>
   <circle cx="227.033312" cy="107.934081" fill="#f0f0f0" id="svg_139" r="3.349701" stroke="#000000" stroke-opacity="0" stroke-width="5"/>
  </g>
  <g id="svg_134">
   <circle cx="226.966651" cy="122.665892" fill="#323232" id="svg_135" r="5.734863" stroke="#000000" stroke-opacity="0" stroke-width="5"/>
   <circle cx="227.033317" cy="122.665893" fill="#f0f0f0" id="svg_136" r="3.349701" stroke="#000000" stroke-opacity="0" stroke-width="5"/>
  </g>
  <g id="svg_131">
   <circle cx="226.966646" cy="137.665894" fill="#323232" id="svg_132" r="5.734863" stroke="#000000" stroke-opacity="0" stroke-width="5"/>
   <circle cx="227.033312" cy="137.665894" fill="#f0f0f0" id="svg_133" r="3.349686" stroke="#000000" stroke-opacity="0" stroke-width="5"/>
  </g>
  <g id="svg_128">
   <circle cx="226.966664" cy="152.6659" fill="#323232" id="svg_129" r="5.734879" stroke="#000000" stroke-opacity="0" stroke-width="5"/>
   <circle cx="227.03333" cy="152.6659" fill="#f0f0f0" id="svg_130" r="3.349701" stroke="#000000" stroke-opacity="0" stroke-width="5"/>
  </g>
  <g id="svg_125">
   <circle cx="226.966664" cy="167.665905" fill="#323232" id="svg_126" r="5.734879" stroke="#000000" stroke-opacity="0" stroke-width="5"/>
   <circle cx="227.03333" cy="167.665905" fill="#f0f0f0" id="svg_127" r="3.349701" stroke="#000000" stroke-opacity="0" stroke-width="5"/>
  </g>
  <g id="svg_122">
   <circle cx="226.966667" cy="182.665905" fill="#323232" id="svg_123" r="5.734879" stroke="#000000" stroke-opacity="0" stroke-width="5"/>
   <circle cx="227.033333" cy="182.665905" fill="#f0f0f0" id="svg_124" r="3.349701" stroke="#000000" stroke-opacity="0" stroke-width="5"/>
  </g>
  <g id="svg_119">
   <circle cx="226.966667" cy="197.665905" fill="#323232" id="svg_120" r="5.734863" stroke="#000000" stroke-opacity="0" stroke-width="5"/>
   <circle cx="227.033333" cy="197.665905" fill="#f0f0f0" id="svg_121" r="3.349701" stroke="#000000" stroke-opacity="0" stroke-width="5"/>
  </g>
  <g id="svg_116">
   <circle cx="226.966651" cy="212.66589" fill="#323232" id="svg_117" r="5.734863" stroke="#000000" stroke-opacity="0" stroke-width="5"/>
   <circle cx="227.033317" cy="212.66589" fill="#f0f0f0" id="svg_118" r="3.349701" stroke="#000000" stroke-opacity="0" stroke-width="5"/>
  </g>
  <g id="svg_113">
   <circle cx="226.966646" cy="227.999236" fill="#323232" id="svg_114" r="5.734863" stroke="#000000" stroke-opacity="0" stroke-width="5"/>
   <circle cx="227.033312" cy="227.999236" fill="#f0f0f0" id="svg_115" r="3.349701" stroke="#000000" stroke-opacity="0" stroke-width="5"/>
  </g>
  <g id="svg_110">
   <circle cx="226.966657" cy="242.999238" fill="#323232" id="svg_111" r="5.734863" stroke="#000000" stroke-opacity="0" stroke-width="5"/>
   <circle cx="227.033323" cy="242.999238" fill="#f0f0f0" id="svg_112" r="3.349686" stroke="#000000" stroke-opacity="0" stroke-width="5"/>
  </g>
  <g id="svg_107">
   <circle cx="226.966674" cy="257.999244" fill="#323232" id="svg_108" r="5.734879" stroke="#000000" stroke-opacity="0" stroke-width="5"/>
   <circle cx="227.03334" cy="257.999244" fill="#f0f0f0" id="svg_109" r="3.349701" stroke="#000000" stroke-opacity="0" stroke-width="5"/>
  </g>
  <g id="svg_104">
   <circle cx="226.966674" cy="272.999249" fill="#323232" id="svg_105" r="5.734879" stroke="#000000" stroke-opacity="0" stroke-width="5"/>
   <circle cx="227.03334" cy="272.999249" fill="#f0f0f0" id="svg_106" r="3.349701" stroke="#000000" stroke-opacity="0" stroke-width="5"/>
  </g>
  <rect fill="#ff7f00" height="11.333336" id="svg_158" stroke="#000000" stroke-opacity="0" stroke-width="5" width="34.000001" x="73.766687" y="11.733318"/>
  <text fill="#ffffff" font-family="Helvetica" font-size="9" font-weight="bold" id="svg_159" stroke="#000000" stroke-opacity="0" stroke-width="0" text-anchor="middle" x="90.374188" xml:space="preserve" y="20.468883">VBAT</text>
  <rect fill="#4c4c4c" height="11.333336" id="svg_161" stroke="#000000" stroke-opacity="0" stroke-width="5" width="34.666667" x="72.966653" y="27.133328"/>
  <text fill="#ffffff" font-family="Helvetica" font-size="9" font-weight="bold" id="svg_160" stroke="#000000" stroke-opacity="0" stroke-width="0" text-anchor="middle" x="90.145583" xml:space="preserve" y="35.868892">GND</text>
  <path d="m23.71645,15.15957l0,4.55856m-1.87901,-2.27928l3.75802,0m4.24655,5.64667l-10.62158,0m-14.19026,0l10.1163,0m0.0909,-5.41028l0.6363,0l0,10.88463l-0.6363,0l0,-10.88463zm3.27236,-5.96418l0.63629,0l0,22.66388l-0.63629,0l0,-22.66388zm-14.08618,10.83451l0.60753,0l0,0.99656l-0.60753,0l0,-0.99656zm25.42089,0.02507l0.60753,0l0,0.99657l-0.60753,0l0,-0.99657z" fill="#4c4c4c" id="svg_162" stroke="#4c4c4c" transform="rotate(-90, 17.4386, 23.043)"/>
  <line fill="none" id="svg_164" stroke="#ff0000" stroke-width="5" x1="17.76669" x2="63.766692" y1="9.733321" y2="17.733321"/>
  <line fill="none" id="svg_165" stroke="#333333" stroke-width="5" x1="17.76669" x2="65.766692" y1="36.399988" y2="33.066655"/>
  <rect fill="#00bf00" height="11.333336" id="svg_8" stroke="#000000" stroke-opacity="0" stroke-width="5" width="35.333334" x="72.466658" y="42.169047"/>
  <text fill="#ffffff" font-family="Helvetica" font-size="9" font-weight="bold" id="svg_6" stroke="#000000" stroke-opacity="0" stroke-width="0" text-anchor="middle" x="89.074159" xml:space="preserve" y="50.618897">GPIO1</text>
  <rect fill="#00bf00" height="11.333336" id="svg_11" stroke="#000000" stroke-opacity="0" stroke-width="5" width="35.333334" x="72.633334" y="58.169048"/>
  <text fill="#ffffff" font-family="Helvetica" font-size="9" font-weight="bold" id="svg_9" stroke="#000000" stroke-opacity="0" stroke-width="0" text-anchor="middle" x="89.240835" xml:space="preserve" y="66.618898">GPIO2</text>
  <rect fill="#00bf00" height="11.333336" id="svg_26" stroke="#000000" stroke-opacity="0" stroke-width="5" width="35.333334" x="72.383334" y="72.919048"/>
  <text fill="#ffffff" font-family="Helvetica" font-size="9" font-weight="bold" id="svg_14" stroke="#000000" stroke-opacity="0" stroke-width="0" text-anchor="middle" x="88.990835" xml:space="preserve" y="81.368898">GPIO3</text>
  <rect fill="#00bf00" height="11.333336" id="svg_29" stroke="#000000" stroke-opacity="0" stroke-width="5" width="35.333334" x="72.133334" y="87.383334"/>
  <text fill="#ffffff" font-family="Helvetica" font-size="9" font-weight="bold" id="svg_28" stroke="#000000" stroke-opacity="0" stroke-width="0" text-anchor="middle" x="88.740835" xml:space="preserve" y="96.118898">GPIO4</text>
  <rect fill="#00bf00" height="11.333336" id="svg_31" stroke="#000000" stroke-opacity="0" stroke-width="5" width="35.333334" x="72.383334" y="102.133334"/>
  <text fill="#ffffff" font-family="Helvetica" font-size="9" font-weight="bold" id="svg_30" stroke="#000000" stroke-opacity="0" stroke-width="0" text-anchor="middle" x="88.990835" xml:space="preserve" y="110.868898">GPIO5</text>
  <path d="m35.20811,34.410221c-1.650044,-0.007605 -3.435019,0.430954 -4.509825,1.841205c-0.837029,1.039629 -1.717745,2.143297 -1.910294,3.535434c-0.43363,2.458972 -0.412594,5.060457 0.304798,7.459544c0.415694,1.191362 1.377085,2.052856 1.956718,3.154501c0.765854,1.153551 1.127911,2.555815 1.026419,3.954065c2.02317,0 4.046337,0 6.069505,0c0.006633,-2.09102 1.251051,-3.810503 2.360156,-5.43532c0.77436,-0.955993 1.275343,-2.11409 1.451984,-3.352397c0.341312,-2.219373 0.418791,-4.594347 -0.371279,-6.722522c-0.750145,-1.628266 -1.66924,-3.415093 -3.425994,-4.032193c-0.941997,-0.359011 -1.958422,-0.41948 -2.952189,-0.402314l-0.000001,-0.000001l0.000002,-0.000002zm-3.094996,19.801497c2.037374,0 4.074747,0 6.112118,0c-0.365612,0.7808 -0.829319,1.636823 -0.572659,2.523302c-0.339819,0.770764 0.095186,1.538251 -0.464018,2.243553c-0.205913,0.966629 -1.378227,1.041925 -2.16348,1.068379c-0.848584,0.098302 -1.791826,-0.147547 -2.115495,-1.070032c-0.673257,-0.493325 0.138205,-1.094235 -0.383462,-1.648811c0.601539,-0.681461 -0.447437,-1.037777 -0.074309,-1.777491c-0.102496,-0.505297 -0.479855,-0.741183 -0.338695,-1.338901l0,0.000001zm-0.013279,0.002175c2.037372,0 4.074746,0 6.112119,0c-0.153518,0.758617 -0.817486,1.475831 -0.56505,2.23933c0.143657,0.633866 -0.454055,1.152729 -0.095439,1.822084c-0.273187,0.803071 -0.819998,1.710059 -1.749938,1.707476c-0.898323,0.001594 -2.117883,0.312795 -2.674519,-0.621752c-0.21052,-0.563166 -0.89033,-0.900834 -0.368372,-1.511969c-0.647197,-0.50653 0.434042,-1.256653 -0.397719,-1.590467c0.395481,-0.79947 -0.426619,-1.25949 -0.261083,-2.044703l0,0l0,0.000001l0.000001,0zm-0.025574,-0.016777c2.037374,0 4.074747,0 6.112121,0c-0.153518,0.758617 -0.817484,1.475832 -0.565047,2.239332c0.143653,0.633864 -0.454058,1.152727 -0.09544,1.822082c-0.353318,0.584733 -0.731676,1.539503 -1.47209,1.608124c-0.812617,0.01002 -1.625237,0.020037 -2.437855,0.030059c-0.556776,-0.622885 -1.351027,-1.349949 -0.914615,-2.180471c-0.615694,-0.450154 0.483014,-1.178653 -0.36599,-1.474426c0.395481,-0.79947 -0.42662,-1.259488 -0.261084,-2.0447l0,0l0,-0.000001l0,0.000001zm1.670325,5.59519c0.863386,0 1.726773,0 2.590159,0c-0.27981,0.211133 -0.449157,0.702843 -0.854157,0.595987c-0.416391,-0.03397 -0.884052,0.050906 -1.269014,-0.05592c-0.155662,-0.180024 -0.311325,-0.360046 -0.466986,-0.540067l-0.000001,0l-0.000001,0zm0.940046,-5.636625c-0.298591,-4.585424 -0.603435,-6.529356 -1.727687,-9.304255c-1.124252,-2.774899 -0.241698,-1.849074 2.27031,-2.149221c2.512009,-0.300146 1.127398,0.865298 1.12842,3.007661c0.001022,2.142364 0.146388,3.216328 0.309663,5.075378c-0.161362,1.800197 0.150735,1.812465 -0.233594,3.254163" fill="#ffff00" id="svg_led1" stroke="#666666" transform="rotate(-90.5977, 35.3516, 47.4043)"/>
  <path d="m35.908504,49.007096c-1.650044,-0.007605 -3.435019,0.430954 -4.509825,1.841205c-0.837029,1.039629 -1.717745,2.143297 -1.910294,3.535434c-0.43363,2.458972 -0.412594,5.060457 0.304798,7.459544c0.415694,1.191362 1.377085,2.052856 1.956718,3.154501c0.765854,1.153551 1.127911,2.555815 1.026419,3.954065c2.02317,0 4.046337,0 6.069505,0c0.006633,-2.09102 1.251051,-3.810503 2.360156,-5.43532c0.77436,-0.955993 1.275343,-2.11409 1.451984,-3.352397c0.341312,-2.219373 0.418791,-4.594347 -0.371279,-6.722522c-0.750145,-1.628266 -1.66924,-3.415093 -3.425994,-4.032193c-0.941997,-0.359011 -1.958422,-0.41948 -2.952189,-0.402314l-0.000001,-0.000001l0.000002,-0.000002zm-3.094996,19.801497c2.037374,0 4.074747,0 6.112118,0c-0.365612,0.7808 -0.829319,1.636823 -0.572659,2.523302c-0.339819,0.770764 0.095186,1.538251 -0.464018,2.243553c-0.205913,0.966629 -1.378227,1.041925 -2.16348,1.068379c-0.848584,0.098302 -1.791826,-0.147547 -2.115495,-1.070032c-0.673257,-0.493325 0.138205,-1.094235 -0.383462,-1.648811c0.601539,-0.681461 -0.447437,-1.037777 -0.074309,-1.777491c-0.102496,-0.505297 -0.479855,-0.741183 -0.338695,-1.338901l0,0.000001zm-0.013279,0.002175c2.037372,0 4.074746,0 6.112119,0c-0.153518,0.758617 -0.817486,1.475831 -0.56505,2.23933c0.143657,0.633866 -0.454055,1.152729 -0.095439,1.822084c-0.273187,0.803071 -0.819998,1.710059 -1.749938,1.707476c-0.898323,0.001594 -2.117883,0.312795 -2.674519,-0.621752c-0.21052,-0.563166 -0.89033,-0.900834 -0.368372,-1.511969c-0.647197,-0.50653 0.434042,-1.256653 -0.397719,-1.590467c0.395481,-0.79947 -0.426619,-1.25949 -0.261083,-2.044703l0,0l0,0.000001l0.000001,0zm-0.025574,-0.016777c2.037374,0 4.074747,0 6.112121,0c-0.153518,0.758617 -0.817484,1.475832 -0.565047,2.239332c0.143653,0.633864 -0.454058,1.152727 -0.09544,1.822082c-0.353318,0.584733 -0.731676,1.539503 -1.47209,1.608124c-0.812617,0.01002 -1.625237,0.020037 -2.437855,0.030059c-0.556776,-0.622885 -1.351027,-1.349949 -0.914615,-2.180471c-0.615694,-0.450154 0.483014,-1.178653 -0.36599,-1.474426c0.395481,-0.79947 -0.42662,-1.259488 -0.261084,-2.0447l0,0l0,-0.000001l0,0.000001zm1.670325,5.59519c0.863386,0 1.726773,0 2.590159,0c-0.27981,0.211133 -0.449157,0.702843 -0.854157,0.595987c-0.416391,-0.03397 -0.884052,0.050906 -1.269014,-0.05592c-0.155662,-0.180024 -0.311325,-0.360046 -0.466986,-0.540067l-0.000001,0l-0.000001,0zm0.940046,-5.636625c-0.298591,-4.585424 -0.603435,-6.529356 -1.727687,-9.304255c-1.124252,-2.774899 -0.241698,-1.849074 2.27031,-2.149221c2.512009,-0.300146 1.127398,0.865298 1.12842,3.007661c0.001022,2.142364 0.146388,3.216328 0.309663,5.075378c-0.161362,1.800197 0.150735,1.812465 -0.233594,3.254163" fill="#ffff00" id="svg_led2" stroke="#666666" transform="rotate(-90.5977, 36.052, 62.0012)"/>
  <path d="m36.408504,64.257096c-1.650044,-0.007605 -3.435019,0.430954 -4.509825,1.841205c-0.837029,1.039629 -1.717745,2.143297 -1.910294,3.535434c-0.43363,2.458972 -0.412594,5.060457 0.304798,7.459544c0.415694,1.191362 1.377085,2.052856 1.956718,3.154501c0.765854,1.153551 1.127911,2.555815 1.026419,3.954065c2.02317,0 4.046337,0 6.069505,0c0.006633,-2.09102 1.251051,-3.810503 2.360156,-5.43532c0.77436,-0.955993 1.275343,-2.11409 1.451984,-3.352397c0.341312,-2.219373 0.418791,-4.594347 -0.371279,-6.722522c-0.750145,-1.628266 -1.66924,-3.415093 -3.425994,-4.032193c-0.941997,-0.359011 -1.958422,-0.41948 -2.952189,-0.402314l-0.000001,-0.000001l0.000002,-0.000002zm-3.094996,19.801497c2.037374,0 4.074747,0 6.112118,0c-0.365612,0.7808 -0.829319,1.636823 -0.572659,2.523302c-0.339819,0.770764 0.095186,1.538251 -0.464018,2.243553c-0.205913,0.966629 -1.378227,1.041925 -2.16348,1.068379c-0.848584,0.098302 -1.791826,-0.147547 -2.115495,-1.070032c-0.673257,-0.493325 0.138205,-1.094235 -0.383462,-1.648811c0.601539,-0.681461 -0.447437,-1.037777 -0.074309,-1.777491c-0.102496,-0.505297 -0.479855,-0.741183 -0.338695,-1.338901l0,0.000001zm-0.013279,0.002175c2.037372,0 4.074746,0 6.112119,0c-0.153518,0.758617 -0.817486,1.475831 -0.56505,2.23933c0.143657,0.633866 -0.454055,1.152729 -0.095439,1.822084c-0.273187,0.803071 -0.819998,1.710059 -1.749938,1.707476c-0.898323,0.001594 -2.117883,0.312795 -2.674519,-0.621752c-0.21052,-0.563166 -0.89033,-0.900834 -0.368372,-1.511969c-0.647197,-0.50653 0.434042,-1.256653 -0.397719,-1.590467c0.395481,-0.79947 -0.426619,-1.25949 -0.261083,-2.044703l0,0l0,0.000001l0.000001,0zm-0.025574,-0.016777c2.037374,0 4.074747,0 6.112121,0c-0.153518,0.758617 -0.817484,1.475832 -0.565047,2.239332c0.143653,0.633864 -0.454058,1.152727 -0.09544,1.822082c-0.353318,0.584733 -0.731676,1.539503 -1.47209,1.608124c-0.812617,0.01002 -1.625237,0.020037 -2.437855,0.030059c-0.556776,-0.622885 -1.351027,-1.349949 -0.914615,-2.180471c-0.615694,-0.450154 0.483014,-1.178653 -0.36599,-1.474426c0.395481,-0.79947 -0.42662,-1.259488 -0.261084,-2.0447l0,0l0,-0.000001l0,0.000001zm1.670325,5.59519c0.863386,0 1.726773,0 2.590159,0c-0.27981,0.211133 -0.449157,0.702843 -0.854157,0.595987c-0.416391,-0.03397 -0.884052,0.050906 -1.269014,-0.05592c-0.155662,-0.180024 -0.311325,-0.360046 -0.466986,-0.540067l-0.000001,0l-0.000001,0zm0.940046,-5.636625c-0.298591,-4.585424 -0.603435,-6.529356 -1.727687,-9.304255c-1.124252,-2.774899 -0.241698,-1.849074 2.27031,-2.149221c2.512009,-0.300146 1.127398,0.865298 1.12842,3.007661c0.001022,2.142364 0.146388,3.216328 0.309663,5.075378c-0.161362,1.800197 0.150735,1.812465 -0.233594,3.254163" fill="#ffff00" id="svg_led3" stroke="#666666" transform="rotate(-90.5977, 36.552, 77.2512)"/>
  <path d="m36.408504,79.757096c-1.650044,-0.007605 -3.435019,0.430954 -4.509825,1.841205c-0.837029,1.039629 -1.717745,2.143297 -1.910294,3.535434c-0.43363,2.458972 -0.412594,5.060457 0.304798,7.459544c0.415694,1.191362 1.377085,2.052856 1.956718,3.154501c0.765854,1.153551 1.127911,2.555815 1.026419,3.954065c2.02317,0 4.046337,0 6.069505,0c0.006633,-2.09102 1.251051,-3.810503 2.360156,-5.43532c0.77436,-0.955993 1.275343,-2.11409 1.451984,-3.352397c0.341312,-2.219373 0.418791,-4.594347 -0.371279,-6.722522c-0.750145,-1.628266 -1.66924,-3.415093 -3.425994,-4.032193c-0.941997,-0.359011 -1.958422,-0.41948 -2.952189,-0.402314l-0.000001,-0.000001l0.000002,-0.000002zm-3.094996,19.801497c2.037374,0 4.074747,0 6.112118,0c-0.365612,0.7808 -0.829319,1.636823 -0.572659,2.523302c-0.339819,0.770764 0.095186,1.538251 -0.464018,2.243553c-0.205913,0.966629 -1.378227,1.041925 -2.16348,1.068379c-0.848584,0.098302 -1.791826,-0.147547 -2.115495,-1.070032c-0.673257,-0.493325 0.138205,-1.094235 -0.383462,-1.648811c0.601539,-0.681461 -0.447437,-1.037777 -0.074309,-1.777491c-0.102496,-0.505297 -0.479855,-0.741183 -0.338695,-1.338901l0,0.000001zm-0.013279,0.002175c2.037372,0 4.074746,0 6.112119,0c-0.153518,0.758617 -0.817486,1.475831 -0.56505,2.23933c0.143657,0.633866 -0.454055,1.152729 -0.095439,1.822084c-0.273187,0.803071 -0.819998,1.710059 -1.749938,1.707476c-0.898323,0.001594 -2.117883,0.312795 -2.674519,-0.621752c-0.21052,-0.563166 -0.89033,-0.900834 -0.368372,-1.511969c-0.647197,-0.50653 0.434042,-1.256653 -0.397719,-1.590467c0.395481,-0.79947 -0.426619,-1.25949 -0.261083,-2.044703l0,0l0,0.000001l0.000001,0zm-0.025574,-0.016777c2.037374,0 4.074747,0 6.112121,0c-0.153518,0.758617 -0.817484,1.475832 -0.565047,2.239332c0.143653,0.633864 -0.454058,1.152727 -0.09544,1.822082c-0.353318,0.584733 -0.731676,1.539503 -1.47209,1.608124c-0.812617,0.01002 -1.625237,0.020037 -2.437855,0.030059c-0.556776,-0.622885 -1.351027,-1.349949 -0.914615,-2.180471c-0.615694,-0.450154 0.483014,-1.178653 -0.36599,-1.474426c0.395481,-0.79947 -0.42662,-1.259488 -0.261084,-2.0447l0,0l0,-0.000001l0,0.000001zm1.670325,5.59519c0.863386,0 1.726773,0 2.590159,0c-0.27981,0.211133 -0.449157,0.702843 -0.854157,0.595987c-0.416391,-0.03397 -0.884052,0.050906 -1.269014,-0.05592c-0.155662,-0.180024 -0.311325,-0.360046 -0.466986,-0.540067l-0.000001,0l-0.000001,0zm0.940046,-5.636625c-0.298591,-4.585424 -0.603435,-6.529356 -1.727687,-9.304255c-1.124252,-2.774899 -0.241698,-1.849074 2.27031,-2.149221c2.512009,-0.300146 1.127398,0.865298 1.12842,3.007661c0.001022,2.142364 0.146388,3.216328 0.309663,5.075378c-0.161362,1.800197 0.150735,1.812465 -0.233594,3.254163" fill="#ffff00" id="svg_led4" stroke="#666666" transform="rotate(-90.5977, 36.5519, 92.7512)"/>
  <path d="m35.908504,95.257096c-1.650044,-0.007605 -3.435019,0.430954 -4.509825,1.841205c-0.837029,1.039629 -1.717745,2.143297 -1.910294,3.535434c-0.43363,2.458972 -0.412594,5.060457 0.304798,7.459544c0.415694,1.191362 1.377085,2.052856 1.956718,3.154501c0.765854,1.153551 1.127911,2.555815 1.026419,3.954065c2.02317,0 4.046337,0 6.069505,0c0.006633,-2.09102 1.251051,-3.810503 2.360156,-5.43532c0.77436,-0.955993 1.275343,-2.11409 1.451984,-3.352397c0.341312,-2.219373 0.418791,-4.594347 -0.371279,-6.722522c-0.750145,-1.628266 -1.66924,-3.415093 -3.425994,-4.032193c-0.941997,-0.359011 -1.958422,-0.41948 -2.952189,-0.402314l-0.000001,-0.000001l0.000002,-0.000002zm-3.094996,19.801497c2.037374,0 4.074747,0 6.112118,0c-0.365612,0.7808 -0.829319,1.636823 -0.572659,2.523302c-0.339819,0.770764 0.095186,1.538251 -0.464018,2.243553c-0.205913,0.966629 -1.378227,1.041925 -2.16348,1.068379c-0.848584,0.098302 -1.791826,-0.147547 -2.115495,-1.070032c-0.673257,-0.493325 0.138205,-1.094235 -0.383462,-1.648811c0.601539,-0.681461 -0.447437,-1.037777 -0.074309,-1.777491c-0.102496,-0.505297 -0.479855,-0.741183 -0.338695,-1.338901l0,0.000001zm-0.013279,0.002175c2.037372,0 4.074746,0 6.112119,0c-0.153518,0.758617 -0.817486,1.475831 -0.56505,2.23933c0.143657,0.633866 -0.454055,1.152729 -0.095439,1.822084c-0.273187,0.803071 -0.819998,1.710059 -1.749938,1.707476c-0.898323,0.001594 -2.117883,0.312795 -2.674519,-0.621752c-0.21052,-0.563166 -0.89033,-0.900834 -0.368372,-1.511969c-0.647197,-0.50653 0.434042,-1.256653 -0.397719,-1.590467c0.395481,-0.79947 -0.426619,-1.25949 -0.261083,-2.044703l0,0l0,0.000001l0.000001,0zm-0.025574,-0.016777c2.037374,0 4.074747,0 6.112121,0c-0.153518,0.758617 -0.817484,1.475832 -0.565047,2.239332c0.143653,0.633864 -0.454058,1.152727 -0.09544,1.822082c-0.353318,0.584733 -0.731676,1.539503 -1.47209,1.608124c-0.812617,0.01002 -1.625237,0.020037 -2.437855,0.030059c-0.556776,-0.622885 -1.351027,-1.349949 -0.914615,-2.180471c-0.615694,-0.450154 0.483014,-1.178653 -0.36599,-1.474426c0.395481,-0.79947 -0.42662,-1.259488 -0.261084,-2.0447l0,0l0,-0.000001l0,0.000001zm1.670325,5.59519c0.863386,0 1.726773,0 2.590159,0c-0.27981,0.211133 -0.449157,0.702843 -0.854157,0.595987c-0.416391,-0.03397 -0.884052,0.050906 -1.269014,-0.05592c-0.155662,-0.180024 -0.311325,-0.360046 -0.466986,-0.540067l-0.000001,0l-0.000001,0zm0.940046,-5.636625c-0.298591,-4.585424 -0.603435,-6.529356 -1.727687,-9.304255c-1.124252,-2.774899 -0.241698,-1.849074 2.27031,-2.149221c2.512009,-0.300146 1.127398,0.865298 1.12842,3.007661c0.001022,2.142364 0.146388,3.216328 0.309663,5.075378c-0.161362,1.800197 0.150735,1.812465 -0.233594,3.254163" fill="#ffff00" id="svg_led5" stroke="#666666" transform="rotate(-90.5977, 36.0519, 108.251)"/>
  <line fill="none" id="svg_39" stroke="#5fbf00" stroke-width="4" x1="48.549988" x2="64.049988" y1="48.100006" y2="47.600006"/>
  <line fill="none" id="svg_40" stroke="#5fbf00" stroke-width="4" x1="48.799988" x2="64.049988" y1="61.850006" y2="62.350006"/>
  <line fill="none" id="svg_83" stroke="#5fbf00" stroke-width="4" x1="49.049988" x2="64.299988" y1="77.100006" y2="77.600006"/>
  <line fill="none" id="svg_84" stroke="#5fbf00" stroke-width="4" x1="49.049988" x2="63.799988" y1="92.600006" y2="92.850006"/>
  <line fill="none" id="svg_85" stroke="#5fbf00" stroke-width="4" x1="48.799988" x2="64.799988" y1="107.600006" y2="107.100006"/>
  <line fill="none" id="svg_90" stroke="#333333" stroke-width="4" x1="22.799988" x2="14.799988" y1="108.100006" y2="108.100006"/>
  <line fill="none" id="svg_91" stroke="#333333" stroke-width="4" x1="23.799988" x2="14.799988" y1="92.100006" y2="92.100006"/>
  <line fill="none" id="svg_163" stroke="#333333" stroke-width="4" x1="23.549988" x2="14.549988" y1="76.350006" y2="76.100006"/>
  <line fill="none" id="svg_166" stroke="#333333" stroke-width="4" x1="23.049988" x2="14.799988" y1="61.600006" y2="61.850006"/>
  <line fill="none" id="svg_167" stroke="#333333" stroke-width="4" x1="22.549988" x2="15.049988" y1="47.100006" y2="47.350006"/>
  <line fill="none" id="svg_168" stroke="#333333" stroke-width="4" x1="15.299988" x2="17.049988" y1="110.100006" y2="34.350006"/>
  <rect fill="#4c4c4c" height="11.333336" id="svg_171" stroke="#000000" stroke-opacity="0" stroke-width="5" width="34.666667" x="185.223815" y="26.819043"/>
  <text fill="#ffffff" font-family="Helvetica" font-size="9" font-weight="bold" id="svg_170" stroke="#000000" stroke-opacity="0" stroke-width="0" text-anchor="middle" x="202.402745" xml:space="preserve" y="35.554607">GND</text>
  <rect fill="#ff7f00" height="11.333336" id="svg_173" stroke="#000000" stroke-opacity="0" stroke-width="5" width="34.000001" x="185.842857" y="11.961898"/>
  <text fill="#ffffff" font-family="Helvetica" font-size="9" font-weight="bold" id="svg_172" stroke="#000000" stroke-opacity="0" stroke-width="0" text-anchor="middle" x="202.450358" xml:space="preserve" y="20.697463">VBAT</text>
  <rect fill="#00bf00" height="11.333336" id="svg_183" stroke="#000000" stroke-opacity="0" stroke-width="5" width="35.333334" x="184.402377" y="42.55119"/>
  <text fill="#ffffff" font-family="Helvetica" font-size="9" font-weight="bold" id="svg_182" stroke="#000000" stroke-opacity="0" stroke-width="0" text-anchor="middle" x="201.581306" xml:space="preserve" y="51.001039">GPIO11</text>
  <rect fill="#00bf00" height="11.333336" id="svg_181" stroke="#000000" stroke-opacity="0" stroke-width="5" width="35.333334" x="184.569052" y="58.55119"/>
  <text fill="#ffffff" font-family="Helvetica" font-size="9" font-weight="bold" id="svg_180" stroke="#000000" stroke-opacity="0" stroke-width="0" text-anchor="middle" x="202.31941" xml:space="preserve" y="67.858183">GPIO12</text>
  <rect fill="#00bf00" height="11.333336" id="svg_179" stroke="#000000" stroke-opacity="0" stroke-width="5" width="35.333334" x="184.319052" y="73.30119"/>
  <text fill="#ffffff" font-family="Helvetica" font-size="9" font-weight="bold" id="svg_178" stroke="#000000" stroke-opacity="0" stroke-width="0" text-anchor="middle" x="201.783696" xml:space="preserve" y="82.608183">GPIO13</text>
  <rect fill="#00bf00" height="11.333336" id="svg_177" stroke="#000000" stroke-opacity="0" stroke-width="5" width="35.333334" x="184.069052" y="87.765476"/>
  <text fill="#ffffff" font-family="Helvetica" font-size="9" font-weight="bold" id="svg_176" stroke="#000000" stroke-opacity="0" stroke-width="0" text-anchor="middle" x="201.81941" xml:space="preserve" y="96.50104">GPIO14</text>
  <rect fill="#00bf00" height="11.333336" id="svg_175" stroke="#000000" stroke-opacity="0" stroke-width="5" width="35.333334" x="184.319052" y="102.515476"/>
  <text fill="#ffffff" font-family="Helvetica" font-size="9" font-weight="bold" id="svg_174" stroke="#000000" stroke-opacity="0" stroke-width="0" text-anchor="middle" x="201.783696" xml:space="preserve" y="111.25104">GPIO15</text>
  <g id="svg_225">
   <rect fill="#b2b2b2" height="8.857142" id="svg_192" stroke="#999999" width="21.142851" x="249.721947" y="43.813192"/>
   <rect fill="#ffffff" height="4.923077" id="svg_193" stroke="#000000" stroke-opacity="0" width="1.846154" x="250.530743" y="45.799995"/>
   <rect fill="#ffffff" height="4.923077" id="svg_197" stroke="#000000" stroke-opacity="0" width="1.846154" x="268.223061" y="45.799996"/>
   <rect fill="#f2f2f2" height="5.384615" id="svg_198" stroke="#000000" stroke-opacity="0" width="11.230769" x="254.684589" y="45.492302"/>
   <rect fill="#f2f2f2" height="3.076923" id="svg_201" stroke="#000000" stroke-opacity="0" width="2.923077" x="246.22305" y="46.723072"/>
   <rect fill="#666666" height="2.307685" id="svg_202" stroke="#000000" stroke-opacity="0" width="2.153855" x="247.299956" y="47.338448"/>
   <rect fill="#666666" height="2.307685" id="svg_203" stroke="#000000" stroke-opacity="0" width="2.153855" x="271.146127" y="47.107694"/>
  </g>
  <g id="svg_226">
   <rect fill="#b2b2b2" height="8.857142" id="svg_227" stroke="#999999" width="21.142851" x="249.721965" y="58.756046"/>
   <rect fill="#ffffff" height="4.923077" id="svg_228" stroke="#000000" stroke-opacity="0" width="1.846154" x="250.53076" y="60.742849"/>
   <rect fill="#ffffff" height="4.923077" id="svg_229" stroke="#000000" stroke-opacity="0" width="1.846154" x="268.223079" y="60.742849"/>
   <rect fill="#f2f2f2" height="5.384615" id="svg_230" stroke="#000000" stroke-opacity="0" width="11.230769" x="254.684607" y="60.435156"/>
   <rect fill="#f2f2f2" height="3.076923" id="svg_231" stroke="#000000" stroke-opacity="0" width="2.923077" x="246.223068" y="61.665926"/>
   <rect fill="#666666" height="2.307685" id="svg_232" stroke="#000000" stroke-opacity="0" width="2.153855" x="247.299973" y="62.281302"/>
   <rect fill="#666666" height="2.307685" id="svg_233" stroke="#000000" stroke-opacity="0" width="2.153855" x="271.146144" y="62.050548"/>
  </g>
  <g id="svg_234">
   <rect fill="#b2b2b2" height="8.857142" id="svg_235" stroke="#999999" width="21.142851" x="249.721942" y="73.525276"/>
   <rect fill="#ffffff" height="4.923077" id="svg_236" stroke="#000000" stroke-opacity="0" width="1.846154" x="250.530737" y="75.512078"/>
   <rect fill="#ffffff" height="4.923077" id="svg_237" stroke="#000000" stroke-opacity="0" width="1.846154" x="268.223056" y="75.512079"/>
   <rect fill="#f2f2f2" height="5.384615" id="svg_238" stroke="#000000" stroke-opacity="0" width="11.230769" x="254.684583" y="75.204386"/>
   <rect fill="#f2f2f2" height="3.076923" id="svg_239" stroke="#000000" stroke-opacity="0" width="2.923077" x="246.223044" y="76.435155"/>
   <rect fill="#666666" height="2.307685" id="svg_240" stroke="#000000" stroke-opacity="0" width="2.153855" x="247.29995" y="77.050531"/>
   <rect fill="#666666" height="2.307685" id="svg_241" stroke="#000000" stroke-opacity="0" width="2.153855" x="271.146121" y="76.819778"/>
  </g>
  <g id="svg_242">
   <rect fill="#b2b2b2" height="8.857142" id="svg_243" stroke="#999999" width="21.142851" x="249.72194" y="88.756047"/>
   <rect fill="#ffffff" height="4.923077" id="svg_244" stroke="#000000" stroke-opacity="0" width="1.846154" x="250.530736" y="90.742849"/>
   <rect fill="#ffffff" height="4.923077" id="svg_245" stroke="#000000" stroke-opacity="0" width="1.846154" x="268.223054" y="90.74285"/>
   <rect fill="#f2f2f2" height="5.384615" id="svg_246" stroke="#000000" stroke-opacity="0" width="11.230769" x="254.684582" y="90.435157"/>
   <rect fill="#f2f2f2" height="3.076923" id="svg_247" stroke="#000000" stroke-opacity="0" width="2.923077" x="246.223043" y="91.665926"/>
   <rect fill="#666666" height="2.307685" id="svg_248" stroke="#000000" stroke-opacity="0" width="2.153855" x="247.299949" y="92.281302"/>
   <rect fill="#666666" height="2.307685" id="svg_249" stroke="#000000" stroke-opacity="0" width="2.153855" x="271.14612" y="92.050548"/>
  </g>
  <g id="svg_250">
   <rect fill="#b2b2b2" height="8.857142" id="svg_251" stroke="#999999" width="21.142851" x="249.721952" y="103.52528"/>
   <rect fill="#ffffff" height="4.923077" id="svg_252" stroke="#000000" stroke-opacity="0" width="1.846154" x="250.530747" y="105.512082"/>
   <rect fill="#ffffff" height="4.923077" id="svg_253" stroke="#000000" stroke-opacity="0" width="1.846154" x="268.223066" y="105.512083"/>
   <rect fill="#f2f2f2" height="5.384615" id="svg_254" stroke="#000000" stroke-opacity="0" width="11.230769" x="254.684593" y="105.20439"/>
   <rect fill="#f2f2f2" height="3.076923" id="svg_255" stroke="#000000" stroke-opacity="0" width="2.923077" x="246.223055" y="106.435159"/>
   <rect fill="#666666" height="2.307685" id="svg_256" stroke="#000000" stroke-opacity="0" width="2.153855" x="247.29996" y="107.050535"/>
   <rect fill="#666666" height="2.307685" id="svg_257" stroke="#000000" stroke-opacity="0" width="2.153855" x="271.146131" y="106.819781"/>
  </g>
  <line fill="none" id="svg_259" stroke="#aa56ff" stroke-width="4" x1="227.576934" x2="247.576934" y1="47.923078" y2="48.230771"/>
  <line fill="none" id="svg_260" stroke="#aa56ff" stroke-width="4" x1="227.115395" x2="247.73078" y1="63.153848" y2="63.307694"/>
  <line fill="none" id="svg_261" stroke="#aa56ff" stroke-width="4" x1="226.50001" x2="247.423088" y1="78.076926" y2="78.076926"/>
  <line fill="none" id="svg_262" stroke="#aa56ff" stroke-width="4" x1="226.50001" x2="247.423088" y1="93.000003" y2="93.461542"/>
  <line fill="none" id="svg_263" stroke="#aa56ff" stroke-width="4" x1="226.192318" x2="247.73078" y1="107.461542" y2="107.923081"/>
  <line fill="none" id="svg_264" stroke="#333333" stroke-width="4" x1="227.361563" x2="275.669257" y1="32.692309" y2="32.846155"/>
  <line fill="none" id="svg_266" stroke="#333333" stroke-width="4" x1="274.768158" x2="274.460466" y1="110.384619" y2="31.000001"/>
 </g>
</svg>