<?xml version="1.0"?>
<svg width="40" height="40" xmlns="http://www.w3.org/2000/svg" xmlns:svg="http://www.w3.org/2000/svg">
 <!-- Created with SVG-edit - https://github.com/SVG-Edit/svgedit-->

 <g class="layer">
  <title>Layer 1</title>
  <ellipse cx="20" cy="20" fill="#eeeeee" id="svg_2" rx="19" ry="19" stroke="#4c4c4c" stroke-width="2"/>
  <path d="m21.247025,35.601474c-0.431059,0.04106 -0.872248,0.069271 -1.326136,0.069271l0,0c-0.405701,0 -0.799976,-0.021808 -1.184142,-0.055155l0,0l-3.329262,4.328935l-0.819026,-0.234734c-0.960999,-0.273195 -1.894113,-0.61566 -2.791719,-1.026107l0,0l-0.778441,-0.356582l0.200313,-5.438429c-0.707444,-0.500216 -1.367974,-1.058186 -1.979063,-1.67l0,0l-5.26396,1.144129l-0.4805,-0.714431c-0.564176,-0.838856 -1.044675,-1.717462 -1.470658,-2.606338l0,0l-0.370213,-0.77601l3.573982,-4.001854c-0.223143,-0.847837 -0.371487,-1.722597 -0.447539,-2.61403l0,0l-4.736568,-2.533242l0.086224,-0.858087c0.10141,-1.027396 0.297921,-2.009908 0.532468,-2.953938l0,0l0.20919,-0.837567l5.282989,-0.740085c0.376542,-0.804221 0.820279,-1.566093 1.319786,-2.283103l0,0l-2.015826,-5.020269l0.608562,-0.602854c0.715047,-0.70545 1.480809,-1.344207 2.279532,-1.92781l0,0l0.692217,-0.505372l4.560339,2.897495c0.76829,-0.35785 1.572088,-0.652852 2.405046,-0.878606l0,0l1.653216,-5.189579l0.851987,-0.065425c0.458944,-0.034635 0.952122,-0.074385 1.488412,-0.074385l0,0c0.535016,0 1.026921,0.039749 1.485864,0.074385l0,0l0.851987,0.065425l1.670971,5.243444c0.801271,0.225753 1.577164,0.514353 2.32137,0.864511l0,0l4.623712,-2.938533l0.694765,0.505351c0.798723,0.583603 1.565759,1.223649 2.279532,1.925253l0,0l0.611089,0.602854l-2.077946,5.170348c0.452615,0.66568 0.860843,1.369862 1.2095,2.111236l0,0l5.447793,0.763162l0.211738,0.837567c0.238349,0.942741 0.433586,1.925253 0.532468,2.953938l0,0l0.086224,0.858087l-4.901372,2.621722c-0.073545,0.813202 -0.204135,1.613577 -0.399372,2.393433l0,0l3.693146,4.127547l-0.371466,0.779856c-0.42473,0.891433 -0.902681,1.772617 -1.469405,2.608895l0,0l-0.4805,0.711874l-5.39455,-1.169784c-0.571779,0.578489 -1.190471,1.110783 -1.852275,1.591769l0,0l0.205388,5.544892l-0.779715,0.35656c-0.898879,0.409179 -1.830719,0.752912 -2.791719,1.026128l0,0l-0.821553,0.234713l-3.336886,-4.340473l0,0zm4.281405,1.389113c0.287811,-0.097482 0.570525,-0.201367 0.850712,-0.312965l0,0l-0.192709,-5.237041l0.607288,-0.393774c0.909031,-0.597719 1.736913,-1.313439 2.472242,-2.126641l0,0l0.489377,-0.542543l5.104212,1.105627c0.15342,-0.259078 0.301743,-0.524602 0.445011,-0.79524l0,0l-3.491559,-3.905661l0.216793,-0.697758c0.308072,-1.004299 0.483027,-2.081736 0.535016,-3.206614l0,0l0.031687,-0.732393l4.637665,-2.479356c-0.048167,-0.300138 -0.103958,-0.598987 -0.167352,-0.897836l0,0l-5.160003,-0.722144l-0.277639,-0.67595c-0.414578,-1.009434 -0.963547,-1.954753 -1.619002,-2.826956l0,0l-0.433607,-0.581025l1.962583,-4.884327c-0.226944,-0.201367 -0.460218,-0.39762 -0.699841,-0.587449l0,0l-4.380287,2.782051l-0.645324,-0.343754c-0.955923,-0.509197 -1.989194,-0.895279 -3.079509,-1.146686l0,0l-0.704917,-0.162886l-1.58224,-4.963846c-0.153399,-0.007692 -0.302996,-0.011538 -0.448792,-0.011538l0,0c-0.148344,0 -0.297941,0.003846 -0.452615,0.011538l0,0l-1.570814,4.931768l-0.715047,0.153926c-1.109343,0.241137 -2.166697,0.633622 -3.151801,1.149243l0,0l-0.64405,0.338619l-4.30929,-2.738434c-0.238349,0.189829 -0.471643,0.386061 -0.697313,0.587449l0,0l1.910594,4.756055l-0.448792,0.582314c-0.699841,0.909395 -1.281771,1.904734 -1.717884,2.974458l0,0l-0.276385,0.678528l-4.993925,0.699026c-0.063394,0.29887 -0.119185,0.597719 -0.166078,0.897857l0,0l4.476642,2.394701l0.027885,0.737528c0.046914,1.191571 0.243425,2.334411 0.58193,3.402867l0,0l0.221869,0.702893l-3.381252,3.783793c0.141994,0.271927 0.290318,0.537429 0.444991,0.796529l0,0l4.964766,-1.081262l0.494453,0.542543c0.761961,0.842702 1.631681,1.576385 2.590132,2.184353l0,0l0.618692,0.391217l-0.188887,5.156232c0.280187,0.111577 0.564176,0.215483 0.851966,0.312965l0,0l3.142903,-4.089087l0.717595,0.08979c0.541345,0.069271 1.068759,0.114155 1.593644,0.114155l0,0c0.564176,0 1.133427,-0.050019 1.715357,-0.133385l0,0l0.723903,-0.102617l3.167007,4.121144l0,0zm1.432642,-10.617737l0.692217,1.076127l-4.390439,2.889803l-1.558135,-2.42549l0,0c-0.566724,0.139809 -1.162586,0.221907 -1.782552,0.221907l0,0c-4.290282,0 -7.766636,-3.51829 -7.766636,-7.853649l0,0c0,-4.340473 3.476353,-7.857474 7.766636,-7.857474l0,0c4.285207,0 7.762834,3.517001 7.762834,7.857474l0,0c0,1.781598 -0.592081,3.432367 -1.584767,4.750941l0,0l0.860843,1.340361m-2.954016,0.414293l0.136919,-0.088501l-1.251317,-1.94835l0.725178,-0.733661c0.94832,-0.961993 1.53025,-2.274143 1.53025,-3.735083l0,0c-0.005055,-2.92186 -2.342905,-5.28706 -5.227198,-5.292196l0,0c-2.890622,0.005135 -5.225924,2.367779 -5.231,5.292196l0,0c0.005076,2.918035 2.342926,5.283236 5.231,5.288371l0,0c0.645324,0 1.266544,-0.133406 1.867502,-0.366852l0,0l0.958451,-0.371966l1.260215,1.956042l0,0z" fill="#007f7f" id="svg_5" stroke="#000000" stroke-opacity="0" transform="matrix(1, 0, 0, 1, 0, 0)"/>
 </g>
</svg>