<?xml version="1.0" standalone="no"?><!DOCTYPE svg PUBLIC "-//W3C//DTD SVG 1.1//EN" "http://www.w3.org/Graphics/SVG/1.1/DTD/svg11.dtd"><svg t="1612778065258" class="icon" viewBox="0 0 1024 1024" version="1.1" xmlns="http://www.w3.org/2000/svg" p-id="1779" xmlns:xlink="http://www.w3.org/1999/xlink" width="200" height="200"><defs><style type="text/css"></style></defs><path d="M107.1 76.7h811c15.5 0 28 12.6 28 28v811c0 15.5-12.6 28-28 28h-811c-15.5 0-28-12.6-28-28v-811c0-15.5 12.6-28 28-28z" fill="#F7D04A" p-id="1780"></path><path d="M107.1 76.7c-15.5 0-28 12.6-28 28v811c0 15.5 12.6 28 28 28h640.6l-465.3-867H107.1z" fill="#F3B41B" p-id="1781"></path><path d="M946.2 348.5c7.7 0 14-6.3 14-14V104.7c0-23.2-18.9-42-42-42h-811c-23.2 0-42 18.9-42 42v811c0 23.2 18.9 42 42 42h811c23.2 0 42-18.9 42-42V424.2c0-7.7-6.3-14-14-14s-14 6.3-14 14v491.5c0 7.7-6.3 14-14 14h-811c-7.7 0-14-6.3-14-14v-811c0-7.7 6.3-14 14-14h811c7.7 0 14 6.3 14 14v229.8c0 7.8 6.2 14 14 14z" fill="" p-id="1782"></path><path d="M512.6 510.2m-328.9 0a328.9 328.9 0 1 0 657.8 0 328.9 328.9 0 1 0-657.8 0Z" fill="#EB6836" p-id="1783"></path><path d="M512.6 510.2m-299 0a299 299 0 1 0 598 0 299 299 0 1 0-598 0Z" fill="#C74B38" p-id="1784"></path><path d="M512.6 528.9c56.8 0 109 19.5 150.4 52.2 33.9 26.8 84 6.4 90.1-36.3 1.6-11.2 2.4-22.7 2.4-34.3 0.1-134.1-108.8-243.1-242.9-243.1-134.2 0-242.9 108.8-242.9 242.9 0 12.1 0.9 23.9 2.6 35.5 6.2 42.3 56.4 61.8 89.9 35.4 41.4-32.8 93.6-52.3 150.4-52.3z" fill="" p-id="1785"></path><path d="M723.5 602c23.6-9.5 39.9-30.1 43.5-55.3 1.7-11.9 2.6-24.1 2.6-36.3 0.1-68.6-26.7-133.2-75.2-181.8-48.6-48.6-113.1-75.4-181.7-75.4-141.7 0-256.9 115.3-256.9 256.9 0 12.6 0.9 25.2 2.7 37.5 3.6 24.7 19.7 45.1 43.1 54.4 8.6 3.4 17.4 5.1 26.2 5.1 15.4 0 30.5-5.1 43.1-15.1 40.7-32.2 89.7-49.2 141.7-49.2 52 0 101 17 141.7 49.1 19.9 15.8 45.8 19.5 69.2 10.1zM198.7 273.8c40.7 0 73.8-33.1 73.8-73.8s-33.1-73.8-73.8-73.8-73.8 33.1-73.8 73.8c0 40.7 33.1 73.8 73.8 73.8z" fill="" p-id="1786"></path><path d="M333.2 510.2c0-104.6 66.2-193.8 158.9-228-116.7 10.4-208.4 108.7-208.4 228 0 11.2 0.8 22.5 2.4 33.5 2.2 14.7 11.8 26.8 25.7 32.4 12.2 4.9 25.5 3.9 36.5-2.5-6.4-7.5-11-16.9-12.6-27.8-1.6-11.7-2.5-23.6-2.5-35.6z" fill="#E5E5E5" p-id="1787"></path><path d="M674.5 348.4c-43.3-43.3-100.8-67.1-161.9-67.1-6.9 0-13.7 0.3-20.5 0.9-92.8 34.2-158.9 123.4-158.9 228 0 12.1 0.9 23.9 2.6 35.5 1.6 10.9 6.2 20.3 12.6 27.8 1.8-1 3.5-2.2 5.1-3.5 44.1-34.8 96.8-53.8 152.8-55.1L636.8 370c5.2-5.8 14-6.2 19.8-1 5.8 5.2 6.2 14 1 19.8l-115 127.8c47.2 5.4 91.4 23.6 129.2 53.5 11.9 9.4 27.3 11.6 41.4 6 14.2-5.7 24-18.1 26.1-33.3 1.5-10.6 2.3-21.5 2.3-32.4 0-61.2-23.8-118.7-67.1-162z" fill="#F2F2F2" p-id="1788"></path><path d="M198.7 901.7c40.7 0 73.8-33.1 73.8-73.8 0-40.7-33.1-73.8-73.8-73.8s-73.8 33.1-73.8 73.8 33.1 73.8 73.8 73.8z" fill="" p-id="1789"></path><path d="M855.5 510.2c0-189.1-153.8-342.9-342.9-342.9-189.1 0-342.9 153.8-342.9 342.9 0 38.7 6.4 76.8 19.1 113 2.6 7.3 10.5 11.2 17.8 8.6 7.3-2.5 11.2-10.5 8.6-17.8-11.6-33.3-17.5-68.2-17.5-103.8 0-173.6 141.3-314.9 314.9-314.9s314.9 141.2 314.9 314.9-141.2 314.9-314.9 314.9c-102.3 0-198.6-50-257.6-133.8-4.5-6.3-13.2-7.8-19.5-3.4-6.3 4.5-7.8 13.2-3.4 19.5 64.2 91.2 169.1 145.7 280.5 145.7 189.1 0 342.9-153.8 342.9-342.9z" fill="" p-id="1790"></path><path d="M826.6 901.7c40.7 0 73.8-33.1 73.8-73.8 0-40.7-33.1-73.8-73.8-73.8-40.7 0-73.8 33.1-73.8 73.8s33.1 73.8 73.8 73.8z" fill="" p-id="1791"></path><path d="M198.7 154.2c7.5 0 14.7 1.8 21 5.1-0.3 0.3-61.4 61.3-61.6 61.6-3.3-6.3-5.1-13.4-5.1-21-0.1-25.2 20.5-45.7 45.7-45.7zM198.7 245.8c-7.5 0-14.7-1.8-21-5.1 0.3-0.3 61.4-61.3 61.6-61.6 3.3 6.3 5.1 13.4 5.1 21 0.1 25.1-20.5 45.7-45.7 45.7z" fill="#CCCCCC" p-id="1792"></path><path d="M826.6 126.2c-40.7 0-73.8 33.1-73.8 73.8s33.1 73.8 73.8 73.8 73.8-33.1 73.8-73.8-33.1-73.8-73.8-73.8z" fill="" p-id="1793"></path><path d="M198.7 782.1c7.5 0 14.7 1.8 21 5.1-0.3 0.3-61.4 61.3-61.6 61.6-3.3-6.3-5.1-13.4-5.1-21-0.1-25.2 20.5-45.7 45.7-45.7zM198.7 873.6c-7.5 0-14.7-1.8-21-5.1 0.3-0.3 61.4-61.3 61.6-61.6 3.3 6.3 5.1 13.4 5.1 21 0.1 25.2-20.5 45.7-45.7 45.7zM867.3 220.9c-0.3-0.3-61.3-61.4-61.6-61.6 6.3-3.3 13.4-5.1 21-5.1 25.2 0 45.8 20.5 45.8 45.8-0.1 7.5-2 14.7-5.2 20.9zM780.8 200c0-7.5 1.8-14.7 5.1-21 0.3 0.3 61.3 61.4 61.6 61.6-6.3 3.3-13.4 5.1-21 5.1-25.2 0.1-45.7-20.5-45.7-45.7zM785.9 806.9c0.3 0.3 61.3 61.4 61.6 61.6-6.3 3.2-13.4 5.1-21 5.1-25.2 0-45.8-20.5-45.8-45.8 0.1-7.5 1.9-14.6 5.2-20.9zM872.4 827.9c0 7.5-1.8 14.7-5.1 21-0.3-0.3-61.3-61.4-61.6-61.6 6.3-3.2 13.4-5.1 21-5.1 25.1-0.1 45.7 20.4 45.7 45.7z" fill="#CCCCCC" p-id="1794"></path><path d="M716.9 459.2c-5.5-5.5-14.3-5.5-19.8 0l-21.6 21.6c-39-41.6-92.1-66.5-148.8-70.1v-16.3c0-7.7-6.3-14-14-14s-14 6.3-14 14v16.3c-56.8 3.5-109.9 28.5-148.8 70.1l-21.6-21.6c-5.5-5.5-14.3-5.5-19.8 0s-5.5 14.3 0 19.8l44.8 44.8c2.7 2.7 6.3 4.1 9.9 4.1 3.6 0 7.2-1.4 9.9-4.1 5.5-5.5 5.5-14.3 0-19.8l-3.4-3.4c33.7-36.3 79.7-58.3 129-61.8v15.4c0 7.7 6.3 14 14 14s14-6.3 14-14v-15.4c49.3 3.5 95.3 25.5 129 61.8l-3.4 3.4c-5.5 5.5-5.5 14.3 0 19.8 2.7 2.7 6.3 4.1 9.9 4.1 3.6 0 7.2-1.4 9.9-4.1l44.8-44.8c5.5-5.5 5.5-14.4 0-19.8z" fill="#666666" p-id="1795"></path><path d="M656.6 369c-5.8-5.2-14.6-4.7-19.8 1L506.3 514.9c2.1 0 4.2-0.1 6.3-0.1 10.1 0 20.1 0.6 29.9 1.7l115-127.8c5.3-5.7 4.8-14.6-0.9-19.7z" fill="#C74B38" p-id="1796"></path></svg>