<?xml version="1.0" standalone="no"?><!DOCTYPE svg PUBLIC "-//W3C//DTD SVG 1.1//EN" "http://www.w3.org/Graphics/SVG/1.1/DTD/svg11.dtd"><svg t="1612023924529" class="icon" viewBox="0 0 1024 1024" version="1.1" xmlns="http://www.w3.org/2000/svg" p-id="8351" xmlns:xlink="http://www.w3.org/1999/xlink" width="200" height="200"><defs><style type="text/css"></style></defs><path d="M238.1824 477.866667a31.5392 31.5392 0 0 1-26.5216-14.916267A262.075733 262.075733 0 0 1 170.666667 321.501867c0-67.413333 24.917333-130.935467 70.144-178.8928C286.071467 94.651733 346.0096 68.266667 409.6 68.266667c63.5904 0 123.562667 26.385067 168.789333 74.3424C623.547733 190.5664 648.533333 254.088533 648.533333 321.536a263.5776 263.5776 0 0 1-33.757866 129.399467 31.6416 31.6416 0 0 1-27.9552 16.554666 31.744 31.744 0 0 1-27.477334-17.408c-5.563733-10.581333-5.358933-23.552 0.546134-33.962666a192.682667 192.682667 0 0 0 24.6784-94.583467c0-102.263467-78.506667-185.4464-174.967467-185.4464-96.4608 0-174.933333 83.182933-174.933333 185.4464 0 36.864 10.4448 72.9088 30.0032 103.424 6.621867 10.376533 7.304533 23.790933 1.774933 34.884267a31.812267 31.812267 0 0 1-28.228267 18.0224h-0.034133z" fill="#FF7214" p-id="8352"></path><path d="M521.284267 489.3696l-0.341334-0.1024a34.747733 34.747733 0 0 1-5.495466-3.140267 16.110933 16.110933 0 0 1-6.894934-11.4688V312.7296l-1.4336-6.894933a89.7024 89.7024 0 0 0-14.984533-34.030934 80.008533 80.008533 0 0 0-20.8896-20.138666c-15.428267-10.24-33.723733-15.086933-53.8624-15.086934-13.7216 0-26.589867 1.604267-39.765333 6.4512-27.989333 10.24-50.346667 33.553067-53.1456 68.232534l-0.2048 5.461333v302.2848l-0.443734-0.443733-3.618133-3.925334-4.1984-3.310933a96.1536 96.1536 0 0 0-36.4544-17.749333l-3.857067-0.8192c-29.013333-5.563733-57.992533 4.642133-81.169066 29.764266-36.727467 39.867733-35.362133 86.357333 0.477866 126.225067l79.2576 89.361067 0.034134 0.068266 78.984533 89.156267 0.477867 0.682667c8.533333 10.581333 20.616533 22.528 37.1712 33.8944 27.3408 18.807467 59.255467 30.3104 95.1296 30.3104h242.005333l7.441067-0.4096a145.578667 145.578667 0 0 0 60.416-20.718934c41.130667-26.146133 60.5184-68.3008 60.5184-119.1936v-210.705066l-0.989867-5.768534a125.3376 125.3376 0 0 0-16.110933-43.281066c-18.568533-30.276267-47.7184-48.128-82.670934-53.077334l-235.383466-49.698133z m-115.677867 394.103467c-6.007467-6.826667-147.319467-166.4-159.8464-180.360534-12.970667-14.404267-13.141333-21.162667-1.024-34.338133 9.864533-10.6496 15.940267-9.4208 18.5344-8.874667a27.886933 27.886933 0 0 1 10.581333 5.12l62.429867 67.140267a32.290133 32.290133 0 0 0 35.703467 8.021333 32.938667 32.938667 0 0 0 20.548266-30.6176V316.7232c0.785067-9.8304 13.9264-11.8784 24.849067-11.8784 14.165333 0 18.056533 5.12 19.319467 6.826667a21.435733 21.435733 0 0 1 3.584 8.0896v156.3648a84.104533 84.104533 0 0 0 35.396266 65.501866c9.352533 6.690133 19.8656 11.605333 30.958934 14.404267l0.546133 0.1024 236.714667 50.005333c0.8192 0.170667 1.6384 0.341333 2.491733 0.443734 15.872 2.048 27.170133 8.874667 34.474667 20.753066 3.618133 6.075733 6.109867 12.765867 7.304533 19.729067v204.8c0 29.115733-9.181867 49.083733-28.0576 61.098667a77.312 77.312 0 0 1-32.085333 10.990933H486.058667c-47.377067 0-76.8-35.908267-79.018667-38.638933a21.2992 21.2992 0 0 0-1.4336-1.8432z" fill="#4A4A4A" p-id="8353"></path></svg>