<?xml version="1.0" standalone="no"?><!DOCTYPE svg PUBLIC "-//W3C//DTD SVG 1.1//EN" "http://www.w3.org/Graphics/SVG/1.1/DTD/svg11.dtd"><svg t="1612023637298" class="icon" viewBox="0 0 1107 1024" version="1.1" xmlns="http://www.w3.org/2000/svg" p-id="1426" xmlns:xlink="http://www.w3.org/1999/xlink" width="216.2109375" height="200"><defs><style type="text/css"></style></defs><path d="M600.637813 923.699317l-265.038724 53.940774 26.533029-96.218679L404.701595 728.929385l372.628701-373.211845v-291.571754A58.314351 58.314351 0 0 0 723.681093 0h-107.881549v87.471526a23.034169 23.034169 0 1 1-46.068337 0V0h-153.949886v87.471526a23.034169 23.034169 0 0 1-23.034168 23.034169 23.034169 23.034169 0 0 1-23.034169-23.034169V0H215.471526v87.471526a23.034169 23.034169 0 1 1-46.068337 0V0h-107.881549A66.186788 66.186788 0 0 0 0 61.52164V962.186788a66.186788 66.186788 0 0 0 61.52164 61.52164h654.578588A66.186788 66.186788 0 0 0 777.621868 962.186788v-215.763098zM135.872437 230.633257h469.430524a20.410023 20.410023 0 0 1 23.034169 23.034169 20.410023 20.410023 0 0 1-23.034169 23.034169H135.872437a20.410023 20.410023 0 0 1-23.034168-23.034169 20.410023 20.410023 0 0 1 23.034168-23.034169z m0 169.403189h469.430524a20.410023 20.410023 0 0 1 23.034169 23.034169 20.410023 20.410023 0 0 1-23.034169 23.034169H135.872437a20.410023 20.410023 0 0 1-23.034168-23.034169 20.410023 20.410023 0 0 1 23.034168-23.034169z m-23.034168 207.890661a20.410023 20.410023 0 0 1 23.034168-23.034169h269.412301a20.410023 20.410023 0 0 1 23.034169 23.034169 24.492027 24.492027 0 0 1-23.034169 23.034169H135.872437a20.410023 20.410023 0 0 1-23.32574-23.325741z" fill="#F9D65D" p-id="1427"></path><path d="M600.929385 923.699317l-265.330296 53.649202 69.102506-249.876993 196.22779 196.227791z" fill="#E0B873" p-id="1428"></path><path d="M439.981777 956.355353l-104.382688 21.284738 27.116173-98.259681a160.072893 160.072893 0 0 0 30.615034 47.817768 165.612756 165.612756 0 0 0 46.651481 29.157175z" fill="#4D4D4D" p-id="1429"></path><path d="M404.614123 727.850569L910.870159 221.390433l196.111162 196.052847-506.256036 506.460137z" fill="#F73434" p-id="1430"></path></svg>