<?xml version="1.0" standalone="no"?><!DOCTYPE svg PUBLIC "-//W3C//DTD SVG 1.1//EN" "http://www.w3.org/Graphics/SVG/1.1/DTD/svg11.dtd"><svg t="1624805091466" class="icon" viewBox="0 0 1024 1024" version="1.1" xmlns="http://www.w3.org/2000/svg" p-id="3992" xmlns:xlink="http://www.w3.org/1999/xlink" width="200" height="200"><defs><style type="text/css"></style></defs><path d="M16.288 442.752l-11.616-1.568a545.92 545.92 0 0 0-4.32 44.416l11.744 0.672c0.768-14.496 2.176-29.088 4.192-43.52z m160.256-302.432l-7.84-8.736c-11.008 9.888-21.728 20.48-31.84 31.328l8.608 8.032c9.856-10.592 20.32-20.896 31.072-30.592z m69.664-52.48l-6.24-10.016c-12.64 7.936-24.992 16.416-36.832 25.344l7.072 9.344c11.52-8.672 23.648-17.024 35.968-24.672z m-168.32 695.904c7.904 12.672 16.384 24.992 25.312 36.832l9.376-7.008c-8.736-11.552-17.024-23.68-24.736-36z m-29.728-83.936l-10.88 4.448c5.504 13.568 11.68 27.104 18.4 40.224l0.224 0.416 10.464-5.344-0.224-0.416a510.56 510.56 0 0 1-17.952-39.328zM12.768 397.184l11.488 2.688c3.232-14.176 7.168-28.32 11.616-42.08l-11.136-3.712c-4.608 14.176-8.608 28.672-11.936 43.104zM11.744 529.92l-11.744 0.416c0.512 14.848 1.696 29.824 3.552 44.512l11.648-1.408a493.248 493.248 0 0 1-3.456-43.52z m-0.768 88.992c3.104 14.496 6.912 29.088 11.264 43.264l11.232-3.424a511.904 511.904 0 0 1-11.008-42.24zM493.856 11.744L493.44 0c-14.848 0.512-29.824 1.664-44.544 3.488l1.44 11.648c14.432-1.76 29.024-2.912 43.52-3.424z m496.96 353.728c4.256 13.92 7.936 28.16 10.912 42.336l11.52-2.528a504.64 504.64 0 0 0-11.168-43.264z m-238.912-306.208a500.48 500.48 0 0 0-40.416-19.168l-4.576 10.752c13.408 5.664 26.656 12 39.52 18.72zM669.632 24.416c-14.176-4.48-28.576-8.48-43.104-11.808l-2.688 11.424c14.176 3.232 28.32 7.168 42.144 11.648zM284.832 65.92c12.704-6.4 25.856-12.416 39.072-17.824l-4.448-10.848c-13.536 5.408-26.976 11.616-39.968 18.272l-0.64 0.352 5.344 10.4z m727.584 428.512l11.744-0.416a516.704 516.704 0 0 0-3.744-47.072l0.256 2.496-11.648 1.408c1.76 14.432 2.912 29.088 3.424 43.616zM582.624 4.48a533.92 533.92 0 0 0-44.512-4.192l-0.608 11.648c14.464 0.768 29.152 2.176 43.488 4.192z m-175.36 18.016l-2.464-11.52c-14.496 3.072-29.056 6.816-43.264 11.264l3.456 11.168c13.856-4.224 28.128-7.904 42.272-10.912zM82.016 233.344l9.856 6.4c7.904-12.16 16.384-24.16 25.248-35.584l-9.248-7.264c-9.088 11.776-17.792 24.032-25.856 36.448zM40.288 312.224l10.784 4.576c5.632-13.344 11.936-26.656 18.72-39.424l-10.368-5.472c-6.944 13.088-13.408 26.656-19.168 40.32z m737.28 624l6.176 9.984c12.576-7.936 24.992-16.416 36.832-25.344l-7.008-9.344c-11.616 8.704-23.776 17.056-36 24.704z m129.088-116.224l9.248 7.264c9.184-11.648 17.824-23.936 25.888-36.448l-9.824-6.304c-7.936 12.16-16.416 24.064-25.344 35.488z m-59.456 63.84l7.84 8.672c11.008-9.824 21.76-20.448 31.84-31.232l-8.576-8.032c-9.824 10.592-20.352 20.832-31.104 30.592z m106.848-136.992l10.4 5.504c6.912-13.088 13.408-26.656 19.168-40.32l-10.848-4.576c-6.88 16.384-13.184 29.312-20 41.92l1.248-2.528z m53.664-165.344l11.648 1.664c2.08-14.752 3.488-29.664 4.352-44.512l-11.744-0.608c-0.768 14.432-2.176 29.088-4.256 43.424z m-19.648 84.992l11.264 3.68c4.576-14.176 8.576-28.576 11.904-43.104l-11.424-2.688c-3.296 14.208-7.2 28.384-11.744 42.112z m-30.016-381.824c6.56 12.928 12.672 26.336 18.08 39.776l10.912-4.448a522.528 522.528 0 0 0-18.592-40.672zM354.016 999.168c14.112 4.576 28.576 8.576 43.04 11.904l2.656-11.424a493.568 493.568 0 0 1-42.08-11.648z m87.008 20.096c14.72 2.08 29.696 3.488 44.512 4.352l0.608-11.744a509.888 509.888 0 0 1-43.488-4.192z m298.272-61.44c-12.928 6.56-26.144 12.672-39.52 18.08l4.448 10.912c13.568-5.6 27.264-11.744 40.416-18.528l0.16-0.096-5.248-10.496z m-542.4-41.888c11.68 9.088 23.968 17.824 36.448 25.824l6.368-9.824a521.28 521.28 0 0 1-35.552-25.248z m332.96 96.32l0.384 11.744c14.848-0.608 29.824-1.76 44.576-3.584l-1.504-11.552c-14.336 1.76-29.024 2.912-43.488 3.424z m-258.016-47.808c13.088 6.912 26.656 13.408 40.352 19.168l4.576-10.848a498.592 498.592 0 0 1-39.424-18.72z m-140.224-109.376c9.952 11.008 20.48 21.76 31.328 31.84l8.032-8.576a483.68 483.68 0 0 1-30.592-31.104zM616.384 1001.6l2.528 11.52c14.496-3.168 29.024-6.912 43.264-11.36l-3.488-11.168c-13.856 4.224-28.128 7.904-42.272 11.008zM903.744 5.504a114.72 114.72 0 1 0 0 229.44 114.72 114.72 0 1 0 0-229.44z m-249.856 653.568c0 20.096 13.408 28.16 36.352 28.16 28.576 0 55.328-16.896 55.328-43.36v-27.52c-9.824 4.576-16.16 6.016-47.232 10.24-31.36 4.64-44.448 13.056-44.448 32.48zM512.064 120.224c-216.32 0-391.68 175.328-391.68 391.68 0 216.224 175.36 391.68 391.68 391.68s391.68-175.392 391.68-391.68c0-216.32-175.36-391.68-391.68-391.68z m-106.112 587.52H246.304v-256.992H279.104v228.096h126.88z m176.224 0h-26.4v-28.576c-17.28 24.32-34.592 33.824-61.696 33.824-35.968 0-58.88-19.744-58.88-50.432v-139.552h29.28v128c0 22.176 14.816 36.256 38.112 36.256 30.688 0 50.4-24.672 50.4-62.336v-101.92h29.28z m-22.624-358.08c0-63.328 51.424-114.72 114.72-114.72s114.688 51.424 114.688 114.72a114.688 114.688 0 0 1-229.408 0z m237.536 335.168v22.176c-9.504 2.528-14.08 3.168-20.096 3.168a31.168 31.168 0 0 1-30.336-24.32 86.432 86.432 0 0 1-62.752 27.168c-37.408 0-60.672-19.744-60.672-53.248 0-22.496 10.912-39.072 32.416-47.904 11.36-4.576 17.664-6.016 59.264-11.264 23.264-2.816 30.688-8.16 30.688-20.48v-7.776c0-17.568-14.848-27.52-41.248-27.52-27.52 0-40.832 10.24-43.36 32.864h-29.568c1.76-42.656 29.28-59.904 73.984-59.904 45.472 0 69.408 17.568 69.408 50.432v102.912c0 9.184 5.664 14.432 15.904 14.432 1.76-0.096 3.168-0.096 6.368-0.736z" fill="#2C2D72" p-id="3993"></path></svg>