<?xml version="1.0" standalone="no"?><!DOCTYPE svg PUBLIC "-//W3C//DTD SVG 1.1//EN" "http://www.w3.org/Graphics/SVG/1.1/DTD/svg11.dtd"><svg t="1612847042902" class="icon" viewBox="0 0 1024 1024" version="1.1" xmlns="http://www.w3.org/2000/svg" p-id="2665" xmlns:xlink="http://www.w3.org/1999/xlink" width="200" height="200"><defs><style type="text/css"></style></defs><path d="M570.514286 597.333333m-316.952381 0a316.952381 316.952381 0 1 0 633.904762 0 316.952381 316.952381 0 1 0-633.904762 0Z" fill="#20DAB4" p-id="2666"></path><path d="M755.809524 1024H268.190476C119.466667 1024 0 904.533333 0 755.809524V268.190476C0 119.466667 119.466667 0 268.190476 0h487.619048c148.72381 0 268.190476 119.466667 268.190476 268.190476v487.619048c0 148.72381-119.466667 268.190476-268.190476 268.190476zM268.190476 48.761905c-121.904762 0-219.428571 97.52381-219.428571 219.428571v487.619048c0 121.904762 97.52381 219.428571 219.428571 219.428571h487.619048c121.904762 0 219.428571-97.52381 219.428571-219.428571V268.190476c0-121.904762-97.52381-219.428571-219.428571-219.428571H268.190476z" fill="#106D5A" p-id="2667"></path><path d="M497.371429 914.285714c-214.552381 0-390.095238-175.542857-390.095239-390.095238s175.542857-390.095238 390.095239-390.095238 390.095238 175.542857 390.095238 390.095238c0 216.990476-173.104762 390.095238-390.095238 390.095238z m0-731.428571c-187.733333 0-341.333333 153.6-341.333334 341.333333s153.6 341.333333 341.333334 341.333334 341.333333-153.6 341.333333-341.333334-151.161905-341.333333-341.333333-341.333333zM436.419048 741.180952z" fill="#106D5A" p-id="2668"></path><path d="M529.066667 597.333333c-2.438095-2.438095-4.87619-2.438095-4.876191-4.87619l-31.695238-14.628572c-9.752381-4.87619-21.942857-2.438095-29.257143 7.314286-34.133333 41.447619-82.895238 65.828571-136.533333 70.704762-9.752381 0-19.504762 2.438095-26.819048 7.314286-2.438095 2.438095-4.87619 2.438095-4.87619 4.87619-7.314286 7.314286-9.752381 17.066667-7.314286 24.380953 4.87619 24.380952 19.504762 48.761905 41.447619 60.952381 31.695238 24.380952 68.266667 36.571429 107.276191 36.571428H443.733333c60.952381 0 104.838095-26.819048 124.342857-73.142857 9.752381-41.447619-2.438095-87.771429-39.009523-119.466667z m-12.190477 104.838096c-9.752381 24.380952-39.009524 39.009524-78.019047 39.009523h-2.438095-2.438096c-29.257143 0-56.07619-9.752381-80.457142-26.819047-4.87619-2.438095-9.752381-7.314286-12.190477-12.190476 56.07619-4.87619 107.27619-31.695238 146.285715-73.142858l12.190476 4.876191c19.504762 19.504762 24.380952 46.32381 17.066666 68.266667zM753.371429 443.733333c-19.504762-41.447619-60.952381-68.266667-109.714286-73.142857-48.761905 0-87.771429 34.133333-102.4 90.209524v9.752381l2.438095 34.133333c0 12.190476 9.752381 19.504762 19.504762 21.942857 53.638095 7.314286 99.961905 39.009524 129.219048 82.895239 4.87619 9.752381 14.628571 19.504762 24.380952 21.942857 2.438095 0 4.87619 2.438095 9.752381 2.438095 2.438095 0 4.87619 0 7.314286-2.438095 14.628571-4.87619 26.819048-17.066667 31.695238-29.257143 24.380952-53.638095 19.504762-112.152381-12.190476-158.476191z m-26.819048 126.780953c-34.133333-43.885714-80.457143-75.580952-134.095238-90.209524v-12.190476c9.752381-31.695238 29.257143-48.761905 53.638095-48.761905 29.257143 2.438095 56.07619 19.504762 68.266667 46.323809 0 0 0 2.438095 2.438095 2.438096 14.628571 31.695238 19.504762 68.266667 9.752381 102.4zM480.304762 295.009524c0-4.87619-4.87619-9.752381-7.314286-14.628572-12.190476-9.752381-26.819048-14.628571-41.447619-12.190476-56.07619 4.87619-107.27619 39.009524-131.657143 90.209524-24.380952 39.009524-29.257143 87.771429-9.752381 129.219048 0 0 0 2.438095 2.438096 2.438095 19.504762 29.257143 51.2 48.761905 87.771428 48.761905h4.876191c12.190476 0 24.380952-2.438095 36.571428-4.876191 2.438095 0 4.87619-2.438095 7.314286-4.87619l29.257143-19.504762c9.752381-7.314286 12.190476-17.066667 9.752381-29.257143-19.504762-48.761905-17.066667-104.838095 7.314285-153.6 2.438095-7.314286 7.314286-19.504762 4.876191-31.695238z m-68.266667 185.295238l-9.752381 7.314286c-7.314286 2.438095-14.628571 2.438095-21.942857 2.438095h-2.438095c-17.066667 0-36.571429-7.314286-46.32381-24.380953-12.190476-26.819048-9.752381-58.514286 7.314286-80.457142l2.438095-2.438096c14.628571-31.695238 46.32381-56.07619 80.457143-63.390476-21.942857 48.761905-24.380952 107.27619-9.752381 160.914286z" fill="#106D5A" p-id="2669"></path><path d="M499.809524 629.028571c-53.638095 0-97.52381-43.885714-97.52381-97.523809s43.885714-97.52381 97.52381-97.52381 97.52381 43.885714 97.523809 97.52381-43.885714 97.52381-97.523809 97.523809z m0-146.285714c-26.819048 0-48.761905 21.942857-48.761905 48.761905s21.942857 48.761905 48.761905 48.761905 48.761905-21.942857 48.761905-48.761905-21.942857-48.761905-48.761905-48.761905z" fill="#106D5A" p-id="2670"></path></svg>