<?xml version="1.0" standalone="no"?><!DOCTYPE svg PUBLIC "-//W3C//DTD SVG 1.1//EN" "http://www.w3.org/Graphics/SVG/1.1/DTD/svg11.dtd"><svg t="1612023807588" class="icon" viewBox="0 0 1024 1024" version="1.1" xmlns="http://www.w3.org/2000/svg" p-id="2288" xmlns:xlink="http://www.w3.org/1999/xlink" width="200" height="200"><defs><style type="text/css"></style></defs><path d="M184.4736 180.7872h658.8416v747.0592H184.4736z" fill="#FEF2E9" p-id="2289"></path><path d="M828.6208 137.6768H199.168c-32.3072 0-58.5216 26.2144-58.5216 58.5216v713.728c0 32.3072 26.2144 58.5216 58.5216 58.5216h629.4528c32.3072 0 58.5216-26.2144 58.5216-58.5216V196.1472c-0.0512-32.3072-26.2144-58.4704-58.5216-58.4704z m-26.4704 718.9504c0 15.1552-12.288 27.4432-27.4432 27.4432H253.0816a27.4432 27.4432 0 0 1-27.4432-27.4432V249.4464c0-15.1552 12.288-27.4432 27.4432-27.4432H774.656c15.1552 0 27.4432 12.288 27.4432 27.4432v607.1808z" fill="#4B8DFD" p-id="2290"></path><path d="M828.6208 137.6768H199.168c-32.3072 0-58.5216 26.2144-58.5216 58.5216v35.5328c0-70.6048 54.9888-69.2736 54.9888-69.2736h630.0672c51.6096 0 61.3376 38.5536 61.3376 38.5536v-4.8128c0.0512-32.3584-26.112-58.5216-58.4192-58.5216z" fill="#76A4FF" p-id="2291"></path><path d="M199.168 968.3968h629.4528c32.3072 0 58.5216-26.2144 58.5216-58.5216v-18.0736s-6.4512 50.3296-58.0608 50.3296H195.7376s-54.9888 0.6656-54.9888-50.3296v18.0736c-0.0512 32.3584 26.112 58.5216 58.4192 58.5216z" fill="#4479E2" p-id="2292"></path><path d="M639.6416 133.7344h-45.824v-1.6896c0-44.6464-36.1984-80.896-80.896-80.896-44.6464 0-80.896 36.1984-80.896 80.896v1.6896h-45.824c-24.5248 0-44.3392 19.8656-44.3392 44.3392v62.2592c0 12.032 9.7792 21.8112 21.8112 21.8112h298.5472c12.032 0 21.8112-9.7792 21.8112-21.8112V178.1248c-0.0512-24.5248-19.9168-44.3904-44.3904-44.3904z" fill="#F29727" p-id="2293"></path><path d="M512.9216 109.2096m-28.416 0a28.416 28.416 0 1 0 56.832 0 28.416 28.416 0 1 0-56.832 0Z" fill="#F4D642" p-id="2294"></path><path d="M683.9808 428.6464H474.0096c-16.9472 0-30.72-13.7728-30.72-30.72s13.7728-30.72 30.72-30.72h209.9712c16.9472 0 30.72 13.7728 30.72 30.72s-13.7216 30.72-30.72 30.72zM344.2176 445.7472c-7.5776 0-14.9504-2.816-20.6336-7.936l-26.3168-23.808c-12.5952-11.3664-13.5168-30.8224-2.1504-43.3664 11.3664-12.5952 30.8224-13.5168 43.3664-2.1504l2.3552 2.1504 19.2512-23.6032a30.6688 30.6688 0 0 1 43.2128-4.352 30.6688 30.6688 0 0 1 4.352 43.2128l-39.7312 48.64a30.76608 30.76608 0 0 1-21.504 11.2128h-2.2016zM367.1552 558.8992h-43.776a18.6368 18.6368 0 0 1-18.6368-18.6368v-42.496a18.6368 18.6368 0 0 1 18.6368-18.6368h43.776a18.6368 18.6368 0 0 1 18.6368 18.6368v42.496a18.6368 18.6368 0 0 1-18.6368 18.6368zM367.1552 684.3904h-43.776a18.6368 18.6368 0 0 1-18.6368-18.6368v-42.496a18.6368 18.6368 0 0 1 18.6368-18.6368h43.776a18.6368 18.6368 0 0 1 18.6368 18.6368v42.496c0 10.3424-8.3456 18.6368-18.6368 18.6368zM367.1552 807.7312h-43.776a18.6368 18.6368 0 0 1-18.6368-18.6368v-42.496a18.6368 18.6368 0 0 1 18.6368-18.6368h43.776a18.6368 18.6368 0 0 1 18.6368 18.6368v42.496a18.6368 18.6368 0 0 1-18.6368 18.6368z" fill="#F29727" p-id="2295"></path><path d="M454.1952 150.9888c-2.4576-40.192 20.1216-67.6352 40.192-75.008 51.2-17.7152 91.6992 25.3952 94.464 28.416-11.3152-31.0272-41.0112-53.248-75.9296-53.248-44.6976 0-80.896 36.1984-80.896 80.896v1.6896h-45.824c-21.9648 0-40.192 16.0256-43.7248 37.0176 4.5568-20.224 38.1952-19.7632 38.1952-19.7632h73.5232zM342.272 172.1344c-0.1536 1.024-0.256 2.048-0.3072 3.072 0-1.1264 0.1536-2.0992 0.3072-3.072z" fill="#F7AC5C" p-id="2296"></path><path d="M539.904 100.3008a28.416 28.416 0 0 0-55.3984 8.9088c0 4.9664 1.28 9.6256 3.5328 13.6704-0.3584-10.4448 3.6352-24.5248 20.48-30.7712 16.64-6.0928 31.1808 7.9872 31.3856 8.192z" fill="#FAE56F" p-id="2297"></path><path d="M487.9872 122.9312a28.3648 28.3648 0 0 0 24.9344 14.7456 28.416 28.416 0 0 0 28.416-28.416c0-3.1232-0.512-6.144-1.4336-8.96 0 0 0.3584 21.2992-19.5072 27.904-10.3424 2.2016-20.4288 3.6352-32.4096-5.2736z" fill="#E4CA2A" p-id="2298"></path><path d="M664.32 244.6336H362.0352s-20.0704-2.1504-20.0704-22.6304h-0.1536v18.3808c0 12.032 9.7792 21.8112 21.8112 21.8112h298.5472c12.032 0 21.8112-9.7792 21.8112-21.8112V178.1248c0-1.6896-0.1024-3.328-0.3072-4.9664 0.0512 1.8944 0.6144 71.4752-19.3536 71.4752z" fill="#F47706" p-id="2299"></path><path d="M411.7504 353.3824a30.70976 30.70976 0 0 0-51.6096-6.4512l-19.2512 23.6032-2.3552-2.1504c-12.5952-11.3664-32-10.4448-43.3664 2.1504-9.5232 10.5472-10.2912 25.856-2.9184 37.2224-2.6112-31.3856 17.3056-35.2256 27.3408-35.2256 3.328 0 6.5024 1.28 8.96 3.4816l13.312 11.6736s20.8896-23.3472 34.4064-37.7856c15.9744-17.0496 34.9696 2.9696 35.4816 3.4816z" fill="#F7AC5C" p-id="2300"></path><path d="M401.5616 377.8048c-10.8032 12.9024-38.4 45.568-38.4 45.568s-9.3184 12.4416-16.8448 11.776c-7.5264-0.6656-28.672-5.12-54.1184-27.2896 1.4336 2.2016 3.0208 4.3008 5.0688 6.144l26.3168 23.808a30.7712 30.7712 0 0 0 20.6336 7.936c0.768 0 1.536-0.0512 2.304-0.1024 8.3968-0.6144 16.1792-4.7104 21.504-11.2128l39.7312-48.64a30.5408 30.5408 0 0 0 3.9936-32.4096s0.6144 11.52-10.1888 24.4224z" fill="#F47706" p-id="2301"></path><path d="M683.9808 367.2064H474.0096c-16.9472 0-30.72 13.7728-30.72 30.72 3.4816-20.736 28.2112-19.456 28.2112-19.456h214.3744c25.8048 0 28.8256 19.456 28.8256 19.456 0-16.9984-13.7216-30.72-30.72-30.72z" fill="#F7AC5C" p-id="2302"></path><path d="M683.9808 428.6464H474.0096c-16.9472 0-30.72-13.7728-30.72-30.72 3.4816 20.736 28.2112 19.456 28.2112 19.456h214.3744c25.8048 0 28.8256-19.456 28.8256-19.456 0 16.9472-13.7216 30.72-30.72 30.72z" fill="#F47706" p-id="2303"></path><path d="M683.9808 546.816H474.0096c-16.9472 0-30.72-13.7728-30.72-30.72s13.7728-30.72 30.72-30.72h209.9712c16.9472 0 30.72 13.7728 30.72 30.72s-13.7216 30.72-30.72 30.72z" fill="#F29727" p-id="2304"></path><path d="M683.9808 485.376H474.0096c-16.9472 0-30.72 13.7728-30.72 30.72 3.4816-20.736 28.2112-19.456 28.2112-19.456h214.3744c25.8048 0 28.8256 19.456 28.8256 19.456 0-16.9472-13.7216-30.72-30.72-30.72z" fill="#F7AC5C" p-id="2305"></path><path d="M683.9808 546.816H474.0096c-16.9472 0-30.72-13.7728-30.72-30.72 3.4816 20.736 28.2112 19.456 28.2112 19.456h214.3744c25.8048 0 28.8256-19.456 28.8256-19.456 0 16.9984-13.7216 30.72-30.72 30.72z" fill="#F47706" p-id="2306"></path><path d="M683.9808 675.2768H474.0096c-16.9472 0-30.72-13.7728-30.72-30.72s13.7728-30.72 30.72-30.72h209.9712c16.9472 0 30.72 13.7728 30.72 30.72s-13.7216 30.72-30.72 30.72z" fill="#F29727" p-id="2307"></path><path d="M683.9808 613.8368H474.0096c-16.9472 0-30.72 13.7728-30.72 30.72 3.4816-20.736 28.2112-19.456 28.2112-19.456h214.3744c25.8048 0 28.8256 19.456 28.8256 19.456 0-16.9984-13.7216-30.72-30.72-30.72z" fill="#F7AC5C" p-id="2308"></path><path d="M683.9808 675.2768H474.0096c-16.9472 0-30.72-13.7728-30.72-30.72 3.4816 20.736 28.2112 19.456 28.2112 19.456h214.3744c25.8048 0 28.8256-19.456 28.8256-19.456 0 16.9472-13.7216 30.72-30.72 30.72z" fill="#F47706" p-id="2309"></path><path d="M683.9808 798.5664H474.0096c-16.9472 0-30.72-13.7728-30.72-30.72s13.7728-30.72 30.72-30.72h209.9712c16.9472 0 30.72 13.7728 30.72 30.72s-13.7216 30.72-30.72 30.72z" fill="#F29727" p-id="2310"></path><path d="M683.9808 737.1264H474.0096c-16.9472 0-30.72 13.7728-30.72 30.72 3.4816-20.736 28.2112-19.456 28.2112-19.456h214.3744c25.8048 0 28.8256 19.456 28.8256 19.456 0-16.9472-13.7216-30.72-30.72-30.72z" fill="#F7AC5C" p-id="2311"></path><path d="M683.9808 798.5664H474.0096c-16.9472 0-30.72-13.7728-30.72-30.72 3.4816 20.736 28.2112 19.456 28.2112 19.456h214.3744c25.8048 0 28.8256-19.456 28.8256-19.456 0 16.9984-13.7216 30.72-30.72 30.72z" fill="#F47706" p-id="2312"></path><path d="M367.1552 479.1808h-43.776a18.6368 18.6368 0 0 0-18.6368 18.6368c0-8.7552 13.9776-8.0896 13.9776-8.0896h46.08c20.1216 0 20.992 11.008 20.992 11.008v-2.9184a18.6368 18.6368 0 0 0-18.6368-18.6368z" fill="#F7AC5C" p-id="2313"></path><path d="M367.1552 558.8992h-43.776a18.6368 18.6368 0 0 1-18.6368-18.6368c0 8.7552 13.9776 8.0896 13.9776 8.0896h46.08c20.1216 0 20.992-11.008 20.992-11.008v2.9184a18.6368 18.6368 0 0 1-18.6368 18.6368z" fill="#F47706" p-id="2314"></path><path d="M367.1552 604.672h-43.776a18.6368 18.6368 0 0 0-18.6368 18.6368c0-8.7552 13.9776-8.0896 13.9776-8.0896h46.08c20.1216 0 20.992 11.008 20.992 11.008v-2.9184a18.6368 18.6368 0 0 0-18.6368-18.6368z" fill="#F7AC5C" p-id="2315"></path><path d="M367.1552 684.3904h-43.776a18.6368 18.6368 0 0 1-18.6368-18.6368c0 8.7552 13.9776 8.0896 13.9776 8.0896h46.08c20.1216 0 20.992-11.008 20.992-11.008v2.9184c0 10.3424-8.3456 18.6368-18.6368 18.6368z" fill="#F47706" p-id="2316"></path><path d="M367.1552 727.9616h-43.776a18.6368 18.6368 0 0 0-18.6368 18.6368c0-8.7552 13.9776-8.0896 13.9776-8.0896h46.08c20.1216 0 20.992 11.008 20.992 11.008v-2.9184a18.6368 18.6368 0 0 0-18.6368-18.6368z" fill="#F7AC5C" p-id="2317"></path><path d="M367.1552 807.7312h-43.776a18.6368 18.6368 0 0 1-18.6368-18.6368c0 8.7552 13.9776 8.0896 13.9776 8.0896h46.08c20.1216 0 20.992-11.008 20.992-11.008v2.9184a18.6368 18.6368 0 0 1-18.6368 18.6368z" fill="#F47706" p-id="2318"></path><path d="M828.6208 135.1168h-170.24a46.70464 46.70464 0 0 0-18.7392-3.9424h-43.264c-0.4608-45.6192-37.7344-82.5856-83.456-82.5856s-82.9952 36.9664-83.456 82.5856h-43.264c-6.656 0-12.9536 1.4336-18.7392 3.9424H199.168c-33.6896 0-61.0304 27.392-61.0304 61.0816v713.728c0 33.6896 27.392 61.0816 61.0304 61.0816h629.4528c33.6896 0 61.0816-27.392 61.0816-61.0816V196.1472c-0.0512-33.6384-27.4432-61.0304-61.0816-61.0304z m-396.5952 1.1776c1.4336 0 2.56-1.1264 2.56-2.56v-1.6896c0-43.2128 35.1232-78.336 78.336-78.336s78.336 35.1232 78.336 78.336v1.6896c0 1.4336 1.1264 2.56 2.56 2.56h45.824c6.1952 0 12.032 1.3824 17.3568 3.7888 1.6896 0.768 3.2768 1.6384 4.8128 2.6112l0.4608 0.3072c1.5872 1.024 3.072 2.1504 4.5056 3.3792a39.46496 39.46496 0 0 1 4.0448 3.9936 46.34112 46.34112 0 0 1 3.84 4.9664l0.1536 0.3072c0.9728 1.4848 1.792 3.0208 2.56 4.6592 0.1024 0.2048 0.2048 0.3584 0.256 0.5632 0.768 1.7408 1.4848 3.4816 1.9968 5.3248 0 0.0512 0 0.1024 0.0512 0.1024 0.512 1.6896 0.8704 3.4304 1.1264 5.1712l0.1536 1.1264c0.256 1.8432 0.4096 3.6864 0.4096 5.5296v62.2592c0 10.5984-8.6528 19.2512-19.2512 19.2512h-298.496c-10.5984 0-19.2512-8.6528-19.2512-19.2512V178.1248a38.87616 38.87616 0 0 1 0.6144-6.7072c0.256-1.6896 0.6144-3.3792 1.1264-4.9664 0-0.1024 0.0512-0.2048 0.0512-0.256a45.7728 45.7728 0 0 1 2.304-5.888c0.768-1.536 1.5872-3.072 2.5088-4.5568 0.0512-0.1024 0.1536-0.256 0.2048-0.3584 1.024-1.536 2.1504-3.0208 3.328-4.4544 0.1536-0.2048 0.3072-0.3584 0.4608-0.512 1.1264-1.2288 2.304-2.4576 3.5328-3.5328 0.1536-0.1536 0.3072-0.3072 0.512-0.4608 1.4336-1.2288 2.9184-2.304 4.5056-3.328 0.1536-0.1024 0.3072-0.2048 0.512-0.3072a41.76384 41.76384 0 0 1 22.1696-6.4h45.824zM363.6224 264.7552h298.5472c13.4656 0 24.3712-10.9568 24.3712-24.3712v-15.8208h88.1152c13.7216 0 24.8832 11.1616 24.8832 24.8832v607.232c0 13.7216-11.1616 24.8832-24.8832 24.8832H253.0816c-13.7216 0-24.8832-11.1616-24.8832-24.8832V249.4464c0-13.7216 11.1616-24.8832 24.8832-24.8832h86.1696v15.8208c0 13.4144 10.9568 24.3712 24.3712 24.3712z m520.9088 645.1712c0 30.8224-25.088 55.9616-55.9616 55.9616H199.168c-30.8224 0-55.9104-25.088-55.9104-55.9616V196.1472c0-30.8224 25.088-55.9616 55.9104-55.9616h159.3856c-0.2048 0.1536-0.4096 0.3584-0.6144 0.512-1.0752 0.8192-2.048 1.6384-3.072 2.5088-0.3584 0.3072-0.6656 0.6144-0.9728 0.9216-1.024 0.9728-2.048 2.048-3.0208 3.1232-0.1536 0.2048-0.3584 0.3584-0.512 0.5632-2.2528 2.6624-4.1984 5.5808-5.8368 8.704-0.1536 0.256-0.256 0.512-0.3584 0.768-0.6144 1.28-1.2288 2.6112-1.7408 3.9424-0.1536 0.4096-0.3072 0.768-0.4096 1.1776-0.4608 1.2288-0.8192 2.5088-1.1776 3.7888-0.1024 0.4608-0.256 0.9216-0.3584 1.3824-0.3072 1.28-0.512 2.56-0.7168 3.8912-0.0512 0.4608-0.1536 0.8704-0.2048 1.3312-0.2048 1.7408-0.3072 3.4816-0.3072 5.2736v41.3184H253.0816c-16.5376 0-30.0032 13.4656-30.0032 30.0032v607.232c0 16.5376 13.4656 30.0032 30.0032 30.0032H774.656c16.5376 0 30.0032-13.4656 30.0032-30.0032V249.4464c0-16.5376-13.4656-30.0032-30.0032-30.0032h-88.1152v-41.3184c0-1.792-0.1024-3.584-0.3072-5.3248l-0.1536-1.1264c-0.2048-1.3824-0.4608-2.7648-0.768-4.096l-0.3072-1.2288a50.32448 50.32448 0 0 0-1.6384-5.0176c-0.512-1.3824-1.1264-2.7136-1.792-4.0448-0.1024-0.2048-0.2048-0.4608-0.3072-0.6656-1.6384-3.1232-3.584-6.0928-5.8368-8.7552-0.1536-0.2048-0.3584-0.3584-0.512-0.5632-0.9728-1.0752-1.9456-2.1504-3.0208-3.1232-0.3072-0.3072-0.6656-0.6144-0.9728-0.9216-0.9728-0.8704-1.9968-1.7408-3.072-2.5088-0.2048-0.1536-0.4096-0.3584-0.6144-0.512h161.3312c30.8224 0 55.9616 25.088 55.9616 55.9616v713.728z" fill="#472F7E" p-id="2319"></path><path d="M512.9216 140.2368c17.1008 0 30.976-13.8752 30.976-30.976s-13.8752-30.976-30.976-30.976-30.976 13.9264-30.976 30.976 13.8752 30.976 30.976 30.976z m0-56.8832c14.2848 0 25.856 11.6224 25.856 25.856 0 14.2848-11.6224 25.856-25.856 25.856-14.2848 0-25.856-11.6224-25.856-25.856-0.0512-14.2336 11.5712-25.856 25.856-25.856zM474.0096 431.2064h209.9712c18.3296 0 33.28-14.9504 33.28-33.28s-14.9504-33.28-33.28-33.28H474.0096c-18.3296 0-33.28 14.9504-33.28 33.28s14.9504 33.28 33.28 33.28z m0-61.44h209.9712c15.5136 0 28.16 12.6464 28.16 28.16s-12.6464 28.16-28.16 28.16H474.0096c-15.5136 0-28.16-12.6464-28.16-28.16s12.6464-28.16 28.16-28.16zM474.0096 554.496h209.9712c18.3296 0 33.28-14.9504 33.28-33.28s-14.9504-33.28-33.28-33.28H474.0096c-18.3296 0-33.28 14.9504-33.28 33.28s14.9504 33.28 33.28 33.28z m0-61.44h209.9712c15.5136 0 28.16 12.6464 28.16 28.16s-12.6464 28.16-28.16 28.16H474.0096c-15.5136 0-28.16-12.6464-28.16-28.16s12.6464-28.16 28.16-28.16zM474.0096 677.8368h209.9712c18.3296 0 33.28-14.9504 33.28-33.28s-14.9504-33.28-33.28-33.28H474.0096c-18.3296 0-33.28 14.9504-33.28 33.28s14.9504 33.28 33.28 33.28z m0-61.44h209.9712c15.5136 0 28.16 12.6464 28.16 28.16s-12.6464 28.16-28.16 28.16H474.0096c-15.5136 0-28.16-12.6464-28.16-28.16s12.6464-28.16 28.16-28.16zM474.0096 801.1264h209.9712c18.3296 0 33.28-14.9504 33.28-33.28s-14.9504-33.28-33.28-33.28H474.0096c-18.3296 0-33.28 14.9504-33.28 33.28s14.9504 33.28 33.28 33.28z m0-61.44h209.9712c15.5136 0 28.16 12.6464 28.16 28.16s-12.6464 28.16-28.16 28.16H474.0096c-15.5136 0-28.16-12.6464-28.16-28.16s12.6464-28.16 28.16-28.16zM293.2224 368.896a32.85504 32.85504 0 0 0-8.5504 23.9616c0.4608 8.8576 4.3008 17.0496 10.9056 23.04l26.3168 23.808a33.36192 33.36192 0 0 0 22.3232 8.6016c0.8192 0 1.6384-0.0512 2.5088-0.1024 9.0624-0.6656 17.5616-5.12 23.296-12.1344l39.7312-48.64c5.632-6.8608 8.2432-15.5648 7.3216-24.3712s-5.1712-16.7936-12.0832-22.4256a32.7936 32.7936 0 0 0-24.3712-7.3216 32.8704 32.8704 0 0 0-22.4256 12.0832l-17.5616 21.504-0.3584-0.3072c-6.6048-5.9904-15.104-8.96-24.0128-8.5504-8.9088 0.3584-17.0496 4.2496-23.04 10.8544z m24.7296-5.8368c7.0144 0 13.6704 2.56 18.8928 7.2704l2.3552 2.1504c0.512 0.4608 1.28 0.7168 1.8944 0.6656 0.7168-0.0512 1.3312-0.4096 1.792-0.9216l19.2512-23.6032a28.07808 28.07808 0 0 1 18.9952-10.24 27.904 27.904 0 0 1 20.6336 6.1952c5.8368 4.7616 9.472 11.52 10.1888 18.9952a27.904 27.904 0 0 1-6.1952 20.6336l-39.7312 48.64a28.48256 28.48256 0 0 1-19.6608 10.2912c-7.7824 0.5632-15.3088-2.048-21.0432-7.2192l-26.3168-23.808a27.94496 27.94496 0 0 1-9.216-19.456c-0.3584-7.5264 2.2016-14.7456 7.2704-20.2752a27.94496 27.94496 0 0 1 19.456-9.216c0.4608-0.1024 0.9216-0.1024 1.4336-0.1024zM367.1552 476.6208h-43.776c-11.6736 0-21.1968 9.5232-21.1968 21.1968v42.496c0 11.6736 9.5232 21.1968 21.1968 21.1968h43.776c11.6736 0 21.1968-9.5232 21.1968-21.1968v-42.496c0-11.6736-9.5232-21.1968-21.1968-21.1968z m16.0768 63.6928c0 8.8576-7.2192 16.0768-16.0768 16.0768h-43.776c-8.8576 0-16.0768-7.2192-16.0768-16.0768v-42.496c0-8.8576 7.2192-16.0768 16.0768-16.0768h43.776c8.8576 0 16.0768 7.2192 16.0768 16.0768v42.496zM367.1552 602.112h-43.776c-11.6736 0-21.1968 9.5232-21.1968 21.1968v42.496c0 11.6736 9.5232 21.1968 21.1968 21.1968h43.776c11.6736 0 21.1968-9.5232 21.1968-21.1968v-42.496c0-11.6736-9.5232-21.1968-21.1968-21.1968z m16.0768 63.6928c0 8.8576-7.2192 16.0768-16.0768 16.0768h-43.776c-8.8576 0-16.0768-7.2192-16.0768-16.0768v-42.496c0-8.8576 7.2192-16.0768 16.0768-16.0768h43.776c8.8576 0 16.0768 7.2192 16.0768 16.0768v42.496zM367.1552 725.4016h-43.776c-11.6736 0-21.1968 9.5232-21.1968 21.1968v42.496c0 11.6736 9.5232 21.1968 21.1968 21.1968h43.776c11.6736 0 21.1968-9.5232 21.1968-21.1968v-42.496c0-11.6736-9.5232-21.1968-21.1968-21.1968z m16.0768 63.6928c0 8.8576-7.2192 16.0768-16.0768 16.0768h-43.776c-8.8576 0-16.0768-7.2192-16.0768-16.0768v-42.496c0-8.8576 7.2192-16.0768 16.0768-16.0768h43.776c8.8576 0 16.0768 7.2192 16.0768 16.0768v42.496z" fill="#472F7E" p-id="2320"></path></svg>