<?xml version="1.0" encoding="UTF-8" standalone="no"?>
<svg
   width="328"
   height="200"
   version="1.1"
   id="svg49"
   sodipodi:docname="logo-big.svg"
   inkscape:version="1.1.1 (3bf5ae0d25, 2021-09-20)"
   xmlns:inkscape="http://www.inkscape.org/namespaces/inkscape"
   xmlns:sodipodi="http://sodipodi.sourceforge.net/DTD/sodipodi-0.dtd"
   xmlns="http://www.w3.org/2000/svg"
   xmlns:svg="http://www.w3.org/2000/svg">
  <defs
     id="defs53" />
  <sodipodi:namedview
     id="namedview51"
     pagecolor="#ffffff"
     bordercolor="#666666"
     borderopacity="1.0"
     inkscape:pageshadow="2"
     inkscape:pageopacity="0.0"
     inkscape:pagecheckerboard="true"
     showgrid="false"
     inkscape:zoom="1.9875"
     inkscape:cx="130.06289"
     inkscape:cy="85.283019"
     inkscape:window-width="1920"
     inkscape:window-height="1018"
     inkscape:window-x="-6"
     inkscape:window-y="-6"
     inkscape:window-maximized="1"
     inkscape:current-layer="layer3" />
  <g
     inkscape:groupmode="layer"
     id="layer3"
     inkscape:label="white">
    <ellipse
       style="fill:#ffffff"
       id="path1637"
       cx="164.77988"
       cy="64.402519"
       rx="63.144653"
       ry="61.886791" />
    <rect
       style="fill:#ffffff"
       id="rect1943"
       width="306.4151"
       height="74.465408"
       x="9.0566034"
       y="123.27044"
       rx="20" />
  </g>
  <g
     id="g42">
    <title
       id="title39">background</title>
    <rect
       fill="none"
       id="canvas_background"
       height="202"
       width="330"
       y="-1"
       x="-1" />
  </g>
  <rect
     style="fill:#000080;fill-rule:evenodd"
     id="rect149"
     width="56.419418"
     height="21.374756"
     x="254.05444"
     y="107.30005"
     rx="7.5590553"
     ry="7.5590553" />
  <text
     xml:space="preserve"
     style="font-style:normal;font-weight:normal;font-size:22.5645px;line-height:1.25;font-family:sans-serif;fill:#000000;fill-opacity:1;stroke:none;stroke-width:0.846169"
     x="247.65451"
     y="129.99742"
     id="text1153"
     transform="scale(1.0377403,0.96363223)"><tspan
       sodipodi:role="line"
       id="tspan1151"
       x="247.65451"
       y="129.99742"
       style="font-size:22.5645px;fill:#ffffff;stroke-width:0.846169">SOC</tspan></text>
  <g
     inkscape:groupmode="layer"
     id="layer2"
     inkscape:label="img"
     style="display:inline">
    <g
       id="g47">
      <title
         id="title44">Layer 1</title>
      <path
         id="svg_1"
         fill-rule="evenodd"
         fill="#000000"
         d="m 143.701,8.749487 c -1.46292,0.976868 -3.33343,3.916715 -4.15586,6.531712 -0.97045,3.08782 -3.55787,6.594135 -7.3729,9.995251 -6.67172,5.947903 -14.24111,15.332754 -14.26902,17.689955 -0.0109,0.868195 -0.5022,2.307476 -1.09416,3.197643 -0.88795,1.336399 -1.64974,1.187271 -4.36938,-0.850853 -5.85657,-4.390701 -7.71132,0.310974 -2.26112,5.73172 3.03382,3.018459 3.18181,3.761799 3.33951,16.826378 0.15891,13.034523 0.34935,14.003288 4.12192,20.893379 3.52389,6.436913 3.71071,7.225342 1.71403,7.225342 -3.16968,0 -3.96301,1.121376 -2.56073,3.619606 0.86611,1.54334 2.56558,2.16067 5.9427,2.16067 3.12116,0 6.71419,1.16646 10.57169,3.43117 5.75464,3.37915 17.64854,6.97332 23.07934,6.97332 2.85064,0 3.72646,1.61732 1.56482,2.89014 -1.67279,0.98496 -1.52601,4.88203 0.22321,5.91091 0.87218,0.51444 3.13208,-1.00809 5.76196,-3.88203 3.04837,-3.33292 5.93419,-5.13288 9.77712,-6.10051 7.1521,-1.79998 12.55136,-4.4878 20.62294,-10.26808 3.6367,-2.604588 7.00048,-4.735196 7.47477,-4.735196 0.47307,0 1.03473,1.426575 1.24579,3.168739 0.48644,4.024227 4.12799,4.950237 4.80851,1.223117 0.26567,-1.461253 0.18681,-4.478557 -0.1771,-6.703967 -0.36392,-2.22541 -0.0121,-6.795288 0.78119,-10.155945 0.79454,-3.360649 1.82805,-10.123573 2.2975,-15.028717 0.46945,-4.905136 1.09783,-9.317799 1.39745,-9.806805 0.2984,-0.487862 1.94328,0.163002 3.65489,1.445068 6.87552,5.15485 7.21881,0.209248 0.49249,-7.073902 -2.59469,-2.809216 -6.3806,-8.47504 -8.41246,-12.590591 -2.03183,-4.114399 -5.7292,-9.998718 -8.2147,-13.074984 l -4.51983,-5.592991 5.33861,0.367622 c 4.20806,0.289015 5.4211,-0.04046 5.72798,-1.55489 0.67325,-3.331751 -4.13526,-4.817282 -10.28418,-3.175686 -4.92372,1.31328 -5.88446,1.203455 -11.07264,-1.265877 -7.58638,-3.61036 -23.38384,-4.554859 -30.54201,-1.824258 -6.69961,2.553725 -7.69311,2.368756 -5.37378,-1.004611 3.57483,-5.201092 0.14314,-8.197585 -5.25854,-4.59185 m 3.23033,4.701676 c -0.83457,0.957212 -2.51706,2.250837 -3.73981,2.875108 -3.56998,1.820787 -2.78877,-2.025406 1.11359,-5.478541 2.80211,-2.479738 3.40014,-2.647367 3.7398,-1.045077 0.22077,1.048544 -0.279,2.690139 -1.11358,3.648511 m 21.34228,1.343335 c 0.67324,0.467045 2.58379,2.796494 4.24567,5.176813 1.66185,2.380316 3.97755,4.33058 5.14452,4.335207 2.58377,0.0092 2.68324,-1.830036 0.33114,-6.128246 -1.71644,-3.136377 -1.68614,-3.220772 0.91707,-2.4728 6.44127,1.850841 11.23036,4.745605 16.85159,10.187156 4.66779,4.519014 5.82866,6.35252 5.18575,8.191803 -0.45488,1.302872 -0.89885,3.929428 -0.9874,5.836922 -0.1286,2.773376 0.38696,3.542152 2.56922,3.8381 1.94693,0.263577 2.75724,-0.233528 2.82759,-1.734081 0.0582,-1.258942 1.02018,-0.246239 2.39454,2.520199 1.50904,3.039265 2.30722,7.220722 2.32785,12.20216 0.0291,7.066963 -0.25473,7.875042 -4.21411,11.994068 -4.73208,4.923645 -5.57272,8.751335 -1.92024,8.751335 1.27853,0 2.59955,-0.649696 2.93677,-1.445068 1.15361,-2.723671 0.79091,4.332893 -0.44034,8.55365 -1.23367,4.234627 -8.05946,11.880775 -13.80928,15.471484 -2.91373,1.81963 -3.29947,1.79304 -7.19698,-0.501727 -4.86067,-2.863548 -7.88357,-3.094765 -8.85644,-0.676292 -0.97528,2.421939 1.54057,4.966409 5.41746,5.479699 3.05323,0.40346 2.92101,0.5734 -2.21138,2.84505 -6.38302,2.8254 -18.44676,4.35255 -25.46055,3.22308 -4.30147,-0.69248 -5.54482,-1.66125 -9.79413,-7.62303 -2.67596,-3.756023 -5.6649,-6.829967 -6.64018,-6.829967 -2.3994,0 -2.34239,6.204547 0.074,8.115497 3.28976,2.60229 0.82971,2.62656 -3.56877,0.0347 -5.28522,-3.1121 -13.86752,-12.259967 -14.79064,-15.762812 -0.37603,-1.43119 -0.0534,-5.502823 0.71934,-9.048439 1.77831,-8.162903 0.97407,-10.937439 -2.95983,-10.22068 -2.85429,0.520226 -2.91251,0.380341 -2.33632,-5.656582 1.60365,-16.824059 6.24353,-25.26442 13.88571,-25.26442 3.96543,0 7.3947,-2.799965 6.41457,-5.235771 -0.69751,-1.73177 -2.0282,-2.167603 -5.27795,-1.7283 -2.63473,0.356064 3.15634,-5.364098 9.09782,-8.988329 8.74725,-5.335194 25.85843,-9.706236 29.12395,-7.440369 m 9.08691,6.33518 c 0,0.645081 -0.80424,0.51907 -1.81958,-0.283234 -1.00075,-0.791899 -1.81955,-1.959513 -1.81955,-2.595341 0,-0.645082 0.80425,-0.519072 1.81955,0.283232 1.00078,0.791899 1.81958,1.959513 1.81958,2.595343 m 26.68695,-1.439287 c 0,0.635828 -1.91054,1.156054 -4.24567,1.156054 -2.33509,0 -4.24563,-0.520226 -4.24563,-1.156054 0,-0.63583 1.91054,-1.156055 4.24563,-1.156055 2.33513,0 4.24567,0.520226 4.24567,1.156055 m -70.68524,14.668022 c 0.23654,0.676292 -1.09418,1.507496 -2.95618,1.848537 -4.25294,0.779175 -4.62048,0.43121 -2.09131,-1.980328 2.11313,-2.012688 4.31723,-1.956043 5.04749,0.13179 m 8.82004,21.760426 c 0,20.263325 0.24987,23.06329 2.4649,27.55341 3.95938,8.026489 9.37561,10.229927 26.83251,10.915474 l 14.37214,0.564148 V 89.31726 83.48381 L 173.15493,83.089599 C 155.32682,82.535842 156.2269,83.931205 155.73682,56.066818 l -0.39667,-22.503769 h -6.57832 -6.57954 v 22.55579 m 61.8652,-17.421749 c 0,2.768749 -1.93481,4.968719 -3.25946,3.706314 -1.03229,-0.984962 0.72421,-6.528244 2.06946,-6.528244 0.65504,0 1.19,1.269348 1.19,2.82193 m -91.65391,8.996418 c 2.89191,3.932899 2.24656,5.090107 -1.14389,2.05431 -1.66793,-1.493622 -3.03261,-3.14447 -3.03261,-3.669323 0,-1.827717 2.30114,-0.937557 4.1765,1.615013 m 106.87638,12.209091 c -1.03958,0.991898 -4.30752,-2.246208 -4.26506,-4.226536 0.0315,-1.455467 0.58834,-1.255474 2.45641,0.883228 1.32951,1.520214 2.14346,3.025398 1.80865,3.343307 M 118.49762,78.478087 c -0.83457,3.050827 -0.84065,3.053139 -1.88507,0.448547 -0.65382,-1.628876 -0.52282,-3.804573 0.34694,-5.780273 1.38649,-3.147934 1.39863,-3.150246 1.88506,-0.448547 0.27052,1.494781 0.11404,4.095901 -0.34693,5.780273 m 87.92014,-5.509758 c -0.7448,1.326004 -1.59514,2.180321 -1.89111,1.899399 -0.84793,-0.809235 0.87218,-4.310921 2.11917,-4.310921 0.61987,0 0.51675,1.084381 -0.22806,2.411522 m 0.0558,24.75576 c 0,1.589577 -0.54587,2.890141 -1.21304,2.890141 -0.66718,0 -1.21305,-1.300564 -1.21305,-2.890141 0,-1.589569 0.54587,-2.890137 1.21305,-2.890137 0.66717,0 1.21304,1.300568 1.21304,2.890137 m -84.60977,1.343346 c -0.83335,0.321381 -2.19802,0.321381 -3.0326,0 -0.83335,-0.320229 -0.15163,-0.582664 1.5163,-0.582664 1.66794,0 2.35088,0.262436 1.5163,0.582664 m 19.56881,2.782615 c 1.2094,1.95143 1.93482,3.79996 1.61214,4.10747 -0.68901,0.65779 -5.71464,-5.19416 -5.71464,-6.655412 0,-2.095924 1.98939,-0.8601 4.10251,2.547942 m 41.99313,-1.23582 c 2.55102,1.90171 2.68326,2.26471 0.82973,2.28667 -3.11631,0.0358 -7.09874,-2.19418 -6.25083,-3.500534 1.01412,-1.565292 1.98577,-1.347961 5.4211,1.213864 M 162.1975,116.799 c -1.20698,1.27166 -2.67596,2.31211 -3.26309,2.31211 -0.58711,0 -0.48401,-1.04045 0.23049,-2.31211 0.71447,-1.27167 2.18225,-2.31211 3.26309,-2.31211 1.73463,0 1.70797,0.27167 -0.23049,2.31211 M 16.255072,156.02393 c 0.34693,20.1304 0.58226,22.1454 2.930714,25.14419 4.57196,5.84039 8.378489,7.08548 22.920448,7.50166 l 13.343475,0.38265 v -4.62422 -4.62423 L 44.11746,179.22597 C 27.969431,178.4017 28.156238,178.70111 28.156238,153.66444 V 134.13982 H 22.017026 15.87903 l 0.37604,21.88411 M 167.6562,141.65417 v 7.51436 h -3.63913 c -3.35042,0 -3.63913,0.32138 -3.63913,4.04619 0,3.72481 0.28871,4.04621 3.63913,4.04621 h 3.63913 l 0.12132,10.69349 c 0.0667,5.88201 0.48885,11.94667 0.93767,13.47962 1.32585,4.51439 6.01547,6.94094 14.10403,7.29817 l 7.27826,0.32022 -0.0218,-4.03464 c -0.0158,-3.12596 -0.56163,-4.11207 -2.42608,-4.38029 -8.32753,-1.19766 -7.86294,-0.46356 -7.86294,-12.41602 v -10.96055 h 4.85217 c 3.01926,0 4.88979,-0.54567 4.95284,-1.44507 0.0558,-0.79422 0.23777,-2.61499 0.40396,-4.04621 0.27295,-2.34216 -0.22078,-2.60112 -4.95287,-2.60112 h -5.2561 v -7.51436 -7.51436 h -6.06522 -6.06521 v 7.51436 m 43.06303,-5.77795 c -6.06157,2.04274 -12.15712,8.22417 -13.85419,14.05069 -0.71203,2.44391 -1.29794,8.15596 -1.30157,12.69348 -0.0134,16.08418 8.61987,25.24593 25.13547,26.67365 4.83155,0.41734 9.43746,-0.006 14.09314,-1.29593 11.73495,-3.25083 16.64901,-10.80912 16.74726,-25.75344 0.091,-13.97323 -3.97758,-21.43209 -14.13316,-25.91298 -5.91723,-2.61152 -19.59793,-2.84388 -26.68695,-0.45547 m 56.44774,0.289 c -8.89041,4.27394 -11.78957,16.22986 -5.76196,23.76157 3.85504,4.81611 10.09131,6.58256 23.24069,6.58256 7.54996,0 9.59515,0.40808 11.59305,2.31212 2.91983,2.78262 3.03384,4.43924 0.53738,7.83456 -1.79526,2.44393 -2.70505,2.56994 -18.59961,2.56994 -9.19119,0 -16.98864,0.26474 -17.32831,0.58726 -0.33844,0.32254 -0.28265,2.53407 0.12375,4.91324 l 0.73874,4.32596 15.74771,0.19769 c 19.8721,0.2497 25.31259,-0.68785 30.01676,-5.16988 7.1351,-6.80108 5.46719,-21.03096 -2.95252,-25.1939 -2.72571,-1.34682 -7.98065,-2.16991 -16.16867,-2.53293 -6.67172,-0.29595 -13.08511,-1.01155 -14.25326,-1.58957 -2.33631,-1.15837 -3.01682,-8.40105 -0.90613,-9.64382 0.66836,-0.39305 8.85641,-0.71559 18.19565,-0.71559 h 16.97897 v -5.13289 -5.13172 l -18.4989,0.002 c -15.19702,0.001 -19.24979,0.36185 -22.70334,2.02309 m -35.94126,8.5398 c 4.538,1.96991 6.78698,7.64383 6.78698,17.12347 0,9.56056 -2.00881,14.22179 -7.23821,16.79979 -4.47372,2.20459 -8.64415,2.2231 -14.07252,0.0613 -6.04944,-2.40921 -8.15772,-7.80337 -7.60216,-19.45408 0.41003,-8.60799 0.65748,-9.31433 4.38151,-12.48538 3.10177,-2.64159 5.10207,-3.36182 9.33074,-3.36182 2.95982,0 6.74573,0.59189 8.41366,1.31676 m -169.104296,19.5503 c 0,16.2946 1.112358,20.33038 6.265366,22.73036 4.24929,1.97916 29.894234,3.11209 32.03889,1.41501 1.36468,-1.0786 1.72616,-5.33404 1.72616,-20.29802 v -18.93387 h -6.065213 -6.065208 v 15.60674 15.60675 h -7.308594 c -6.728745,0 -7.401978,-0.23468 -8.491302,-2.96529 -0.650177,-1.63119 -1.182709,-8.65422 -1.182709,-15.60673 V 149.16854 H 67.58014 62.121446 v 15.08651 m 50.947804,-12.95822 c 0,5.55947 0.85399,5.9641 12.59625,5.9641 8.10553,0 11.85628,0.48901 13.82018,1.79997 6.25446,4.17452 1.77228,6.2924 -13.31799,6.2924 -7.70282,0 -8.73996,0.2925 -11.9788,3.37915 -4.86308,4.63463 -4.94921,11.30968 -0.20986,16.23679 l 3.33588,3.46817 16.37608,0.0774 c 9.00685,0.0428 17.33195,0.0509 18.4989,0.0185 1.87658,-0.052 2.12283,-1.40575 2.12283,-11.68541 0,-13.86339 -1.60242,-20.75694 -5.67099,-24.40546 -2.78999,-2.50055 -4.18863,-2.72368 -19.28979,-3.07396 -15.59488,-0.36301 -16.28269,-0.28207 -16.28269,1.9283 m 29.11304,25.61702 v 3.46817 h -9.13542 c -7.00169,0 -9.29921,-0.40463 -9.83415,-1.73408 -1.65822,-4.11556 0.39546,-5.20224 9.83415,-5.20224 h 9.13542 v 3.46815 m -22.0422,35.37413 c -0.21957,4.83115 0.0109,9.02301 0.51068,9.31665 0.50099,0.29247 0.90978,-3.40112 0.90978,-8.20683 0,-4.80574 0.43428,-8.73863 0.96559,-8.73863 0.5313,0 0.93403,2.86125 0.89522,6.3583 -0.0376,3.49706 0.28871,6.35831 0.72783,6.35831 0.43791,0 0.76543,-3.12135 0.72782,-6.93634 -0.0582,-5.82536 -0.41001,-6.93632 -2.20288,-6.93632 -1.81593,0 -2.19439,1.31442 -2.53404,8.78486 m 11.12481,-7.05078 c -0.83093,0.95374 -1.10388,1.73409 -0.60651,1.73409 0.49735,0 0.2244,0.78033 -0.60653,1.73407 -1.04322,1.19767 -1.0893,1.73408 -0.14798,1.73408 0.74844,0 1.36102,1.82079 1.36102,4.0462 0,2.22541 -0.54587,4.04619 -1.21304,4.04619 -0.66718,0 -1.21305,-1.52946 -1.21305,-3.39995 0,-1.87051 -0.51312,-3.70285 -1.14146,-4.07164 -0.67688,-0.39883 -0.85884,0.98381 -0.44762,3.39995 0.45124,2.64739 0.21349,4.07164 -0.6781,4.07164 -0.75451,0 -1.36952,0.39075 -1.3683,0.86704 0.002,0.47744 3.14177,0.9445 6.97499,1.04045 4.97348,0.1237 5.85053,-0.0428 3.06171,-0.57804 -2.96951,-0.57107 -3.65367,-1.14334 -2.84213,-2.38031 0.58831,-0.89595 0.78724,-2.32713 0.44397,-3.17915 -0.37242,-0.92715 0.21713,-1.55026 1.46777,-1.55026 1.57574,0 1.94693,0.71097 1.51024,2.89014 -0.31903,1.58957 -0.10918,2.89013 0.46582,2.89013 0.57376,0 1.04442,-2.31094 1.04442,-5.13635 0,-4.51324 -0.29357,-5.08086 -2.42609,-4.69012 -1.33435,0.2451 -2.42609,-0.0451 -2.42609,-0.64393 0,-0.59999 1.13057,-1.09014 2.51221,-1.09014 2.23444,0 2.31085,-0.19307 0.69388,-1.73409 -1.00079,-0.95375 -2.06462,-1.73408 -2.36423,-1.73408 -0.29962,0 -1.22397,0.78033 -2.0549,1.73408 m 13.27432,1.44507 c -2.69172,5.11554 -2.73782,5.27391 -1.30159,4.42769 0.92556,-0.54451 1.37075,0.59306 1.37075,3.50053 0,2.36876 0.36149,3.96181 0.80304,3.541 0.44154,-0.42081 0.73146,-2.59535 0.6429,-4.83232 -0.0885,-2.23695 0.35542,-5.36061 0.98622,-6.94211 1.55632,-3.89821 -0.4173,-3.6589 -2.50131,0.30521 m 5.88812,0.29594 c -1.13663,1.90402 -1.81957,3.46123 -1.51631,3.46123 0.96316,0 4.78303,-4.18607 5.09842,-5.5872 0.57742,-2.5676 -1.5248,-1.32023 -3.58211,2.12597 m 16.68176,-2.03003 c -0.25838,0.79537 -0.70842,4.82654 -0.99834,8.95943 -0.43184,6.12709 -0.29475,6.92708 0.74239,4.33521 0.87946,-2.19881 2.13374,-3.17916 4.06976,-3.17916 2.30115,0 2.79849,-0.61732 2.79849,-3.46817 0,-2.69706 -0.5386,-3.46815 -2.42608,-3.46815 -3.3286,0 -3.07506,-3.1884 0.30325,-3.80806 2.3145,-0.42542 2.21623,-0.52484 -0.64413,-0.65894 -1.85596,-0.0867 -3.58574,0.49364 -3.84534,1.28784 m 9.69707,0 c -0.26203,0.79537 -0.84186,4.04619 -1.28824,7.22535 -0.44521,3.17915 -1.37195,6.43113 -2.05855,7.22534 -0.7533,0.87166 -0.78484,1.44507 -0.0813,1.44507 1.48718,0 3.98242,-5.1641 3.98242,-8.24268 0,-4.67508 3.0326,-1.35373 3.13207,3.43002 0.14436,6.99413 1.72011,7.43228 1.72011,0.47745 0,-3.58609 0.59074,-6.12823 1.51629,-6.52132 0.83458,-0.35489 0.42458,-0.59881 -0.90979,-0.54101 -4.45791,0.18957 -5.45868,-0.15146 -5.45868,-1.86356 0,-0.93642 1.77469,-2.18959 3.94239,-2.7861 l 3.94238,-1.08554 -3.98,-0.10405 c -2.20652,-0.0578 -4.19348,0.5399 -4.45913,1.34103 m 13.81291,-0.57803 c -0.87581,8.87735 -1.54176,12.73857 -2.48914,14.42526 -0.71084,1.26473 -0.71571,2.04852 -0.0134,2.04852 1.66429,0 3.80046,-6.59643 3.80046,-11.7328 0,-4.28433 0.14798,-4.44618 3.94239,-4.29474 2.85066,0.11446 3.18666,0.29595 1.21304,0.65895 -1.93723,0.35491 -2.72934,1.31559 -2.72934,3.31095 0,1.54449 0.49492,2.8092 1.09901,2.8092 0.6053,0 0.81395,-1.04043 0.46581,-2.3121 -0.55679,-2.02889 -0.0376,-2.3121 4.24565,-2.3121 4.28204,0 4.80243,0.28321 4.24564,2.3121 -0.37119,1.35258 -0.0376,2.3121 0.80426,2.3121 2.79362,0 0.7351,-5.0901 -2.36907,-5.85773 -2.80455,-0.69363 -2.71236,-0.79188 1.21304,-1.30749 2.5947,-0.34103 0.82608,-0.62889 -4.54892,-0.74219 -4.83641,-0.10173 -8.83337,0.20578 -8.87948,0.68207 m -63.59983,2.60113 c 0.41242,0.63584 0.98983,1.15606 1.28461,1.15606 0.29477,0 0.53495,-0.52022 0.53495,-1.15606 0,-0.63583 -0.57862,-1.15606 -1.28463,-1.15606 -0.70598,0 -0.94737,0.52023 -0.53493,1.15606 m 30.70696,0.0636 c 1.68855,0.6451 2.46004,1.60808 1.93602,2.41732 -0.54223,0.83699 -0.34329,1.03236 0.52768,0.51907 2.71843,-1.60112 1.50659,-4.15833 -1.9348,-4.08318 -3.27159,0.0728 -3.2825,0.0948 -0.5289,1.14679 m -3.4135,7.21958 c 0,2.73405 -0.65503,5.5953 -1.45565,6.3583 -1.13176,1.0786 -0.99714,1.38726 0.60652,1.38726 1.69099,0 2.06218,-1.1445 2.06218,-6.3583 0,-3.49707 -0.27295,-6.3583 -0.60652,-6.3583 -0.33359,0 -0.60653,2.23697 -0.60653,4.97104 m 17.98095,-2.27398 c 0.26443,1.29943 -0.42701,1.92716 -2.12284,1.92716 -1.38286,0 -2.51463,-0.69363 -2.51463,-1.54102 0,-3.541 3.92905,-3.86816 4.63747,-0.38614 m -36.50533,-0.84274 c -0.40272,0.38381 -1.44958,0.42542 -2.32419,0.0913 -0.96802,-0.36877 -0.68051,-0.64276 0.73268,-0.69826 1.27854,-0.0497 1.99425,0.22313 1.59151,0.60695 m 63.11949,2.24044 c 0.65746,3.27392 0.61743,3.2797 2.59227,-0.33759 1.23245,-2.25891 1.11722,-2.60112 -0.88067,-2.60112 -1.80985,0 -2.17499,0.62659 -1.7116,2.93871 m -49.22407,2.25892 c -0.7618,1.59189 -0.91342,2.89476 -0.33846,2.89476 1.00685,0 2.82155,-4.74214 2.08402,-5.44618 -0.19895,-0.18843 -0.98499,0.95837 -1.74556,2.55142 m 8.97528,-0.57341 c 0.89889,3.21962 1.47265,4.0878 2.22595,3.36989 0.27899,-0.26588 -0.28992,-1.78262 -1.26398,-3.37219 l -1.76983,-2.88784 0.80786,2.89014 m 44.17541,-0.70172 c 0,0.2497 0.8467,0.76415 1.88263,1.14334 1.07962,0.39421 1.56606,0.19998 1.14147,-0.45433 -0.71204,-1.09942 -3.0241,-1.62543 -3.0241,-0.68901 m -10.10827,3.78493 c -0.44521,0.42311 -0.80912,1.30749 -0.80912,1.96528 0,0.7237 0.56528,0.65549 1.43503,-0.17341 0.78969,-0.7526 1.1536,-1.63698 0.80911,-1.96529 -0.34452,-0.32832 -0.99105,-0.25085 -1.43502,0.17342 m 3.30674,1.05778 c 0.40515,1.00577 0.73632,2.04622 0.73632,2.31211 0,0.2659 1.63762,0.48323 3.63913,0.48323 2.00151,0 3.63913,-0.48784 3.63913,-1.08438 0,-0.59652 -1.50055,-0.98728 -3.33588,-0.86704 -2.11189,0.13757 -3.22427,-0.31329 -3.03261,-1.22772 0.16741,-0.79422 -0.30082,-1.44507 -1.03956,-1.44507 -0.73876,0 -1.01169,0.82311 -0.60653,1.82887 m 9.83414,0.48323 c 0.41243,0.63584 0.98984,1.15606 1.28462,1.15606 0.29476,0 0.53495,-0.52022 0.53495,-1.15606 0,-0.63583 -0.57863,-1.15605 -1.28463,-1.15605 -0.706,0 -0.94737,0.52022 -0.53494,1.15605" />
    </g>
  </g>
</svg>
