<?xml version="1.0" encoding="UTF-8" standalone="no"?>
<svg
   width="328"
   height="200"
   version="1.1"
   id="svg49"
   sodipodi:docname="logo-big.svg"
   inkscape:version="1.1.1 (3bf5ae0d25, 2021-09-20)"
   xmlns:inkscape="http://www.inkscape.org/namespaces/inkscape"
   xmlns:sodipodi="http://sodipodi.sourceforge.net/DTD/sodipodi-0.dtd"
   xmlns="http://www.w3.org/2000/svg"
   xmlns:svg="http://www.w3.org/2000/svg">
  <defs
     id="defs53" />
  <sodipodi:namedview
     id="namedview51"
     pagecolor="#ffffff"
     bordercolor="#666666"
     borderopacity="1.0"
     inkscape:pageshadow="2"
     inkscape:pageopacity="0.0"
     inkscape:pagecheckerboard="0"
     showgrid="false"
     inkscape:zoom="3.975"
     inkscape:cx="163.89937"
     inkscape:cy="100"
     inkscape:window-width="1920"
     inkscape:window-height="1013"
     inkscape:window-x="1911"
     inkscape:window-y="-9"
     inkscape:window-maximized="1"
     inkscape:current-layer="svg49" />
  <g
     id="g42">
    <title
       id="title39">background</title>
    <rect
       fill="none"
       id="canvas_background"
       height="202"
       width="330"
       y="-1"
       x="-1" />
  </g>
  <g
     id="g47">
    <title
       id="title44">Layer 1</title>
    <path
       id="svg_1"
       fill-rule="evenodd"
       fill="black"
       d="m143.701004,8.749487c-1.462921,0.976868 -3.333435,3.916715 -4.155869,6.531712c-0.970444,3.08782 -3.557861,6.594135 -7.372894,9.995251c-6.671722,5.947903 -14.241112,15.332754 -14.26902,17.689955c-0.010918,0.868195 -0.502197,2.307476 -1.094162,3.197643c-0.887947,1.336399 -1.649742,1.187271 -4.369377,-0.850853c-5.856575,-4.390701 -7.711319,0.310974 -2.261124,5.73172c3.033821,3.018459 3.181816,3.761799 3.339516,16.826378c0.158905,13.034523 0.34935,14.003288 4.121918,20.893379c3.523888,6.436913 3.710709,7.225342 1.714027,7.225342c-3.169678,0 -3.963005,1.121376 -2.56073,3.619606c0.866112,1.543335 2.565582,2.160667 5.942703,2.160667c3.121162,0 6.714188,1.166458 10.571686,3.431175c5.754639,3.379143 17.648544,6.97332 23.079346,6.97332c2.850632,0 3.726456,1.617317 1.564819,2.890137c-1.672791,0.984962 -1.526016,4.882027 0.223206,5.910912c0.872177,0.514435 3.13208,-1.008087 5.761963,-3.882034c3.04837,-3.332916 5.934189,-5.132881 9.777115,-6.10051c7.1521,-1.799973 12.551361,-4.487801 20.62294,-10.268074c3.636703,-2.604591 7.000488,-4.735199 7.474777,-4.735199c0.473068,0 1.034729,1.426575 1.245789,3.168739c0.486435,4.024231 4.127991,4.950233 4.808502,1.223114c0.265671,-1.46125 0.186813,-4.478554 -0.177094,-6.703964c-0.363922,-2.22541 -0.012131,-6.795288 0.781189,-10.155945c0.79454,-3.360649 1.828049,-10.123573 2.297501,-15.028717c0.469452,-4.905136 1.097824,-9.317799 1.397446,-9.806805c0.298401,-0.487862 1.943283,0.163002 3.654892,1.445068c6.875519,5.15485 7.218811,0.209248 0.492493,-7.073902c-2.594696,-2.809216 -6.3806,-8.47504 -8.41246,-12.590591c-2.03183,-4.114399 -5.729202,-9.998718 -8.214706,-13.074984l-4.519821,-5.592991l5.338608,0.367622c4.208054,0.289015 5.421097,-0.040462 5.727982,-1.55489c0.673248,-3.331751 -4.135269,-4.817282 -10.28418,-3.175686c-4.923721,1.31328 -5.88446,1.203455 -11.072647,-1.265877c-7.58638,-3.61036 -23.383835,-4.554859 -30.542007,-1.824258c-6.699615,2.553725 -7.693115,2.368756 -5.373779,-1.004611c3.574829,-5.201092 0.143143,-8.197585 -5.258545,-4.59185m3.230331,4.701676c-0.834564,0.957212 -2.517059,2.250837 -3.739807,2.875108c-3.569977,1.820787 -2.788773,-2.025406 1.113586,-5.478541c2.802109,-2.479738 3.400146,-2.647367 3.739807,-1.045077c0.220764,1.048544 -0.279007,2.690139 -1.113586,3.648511m21.342285,1.343335c0.673233,0.467045 2.583786,2.796494 4.245667,5.176813c1.66185,2.380316 3.977554,4.33058 5.144516,4.335207c2.583771,0.009247 2.683243,-1.830036 0.331146,-6.128246c-1.716446,-3.136377 -1.686142,-3.220772 0.917068,-2.4728c6.441269,1.850841 11.230362,4.745605 16.851593,10.187156c4.667786,4.519014 5.828659,6.35252 5.185745,8.191803c-0.45488,1.302872 -0.898849,3.929428 -0.987396,5.836922c-0.128601,2.773376 0.386963,3.542152 2.569214,3.8381c1.94693,0.263577 2.757248,-0.233528 2.827591,-1.734081c0.058243,-1.258942 1.020187,-0.246239 2.394547,2.520199c1.509033,3.039265 2.30722,7.220722 2.32785,12.20216c0.029099,7.066963 -0.25473,7.875042 -4.214111,11.994068c-4.732086,4.923645 -5.572723,8.751335 -1.920242,8.751335c1.278534,0 2.599548,-0.649696 2.936768,-1.445068c1.15361,-2.723671 0.790909,4.332893 -0.440338,8.55365c-1.233673,4.234627 -8.059464,11.880775 -13.80928,15.471481c-2.913727,1.819633 -3.299469,1.793045 -7.196976,-0.501724c-4.860672,-2.863548 -7.883575,-3.094765 -8.856445,-0.676292c-0.975281,2.421936 1.540573,4.966408 5.417465,5.479698c3.053223,0.403458 2.921005,0.573402 -2.21138,2.845047c-6.383026,2.825409 -18.446762,4.352554 -25.460556,3.223083c-4.301468,-0.692474 -5.544815,-1.661247 -9.794128,-7.623032c-2.675964,-3.75602 -5.664902,-6.829964 -6.640182,-6.829964c-2.399399,0 -2.342392,6.204544 0.07399,8.115501c3.289764,2.602287 0.829712,2.626556 -3.568771,0.034691c-5.285217,-3.112106 -13.867516,-12.259972 -14.790642,-15.762817c-0.37603,-1.43119 -0.053368,-5.502823 0.719345,-9.048439c1.778313,-8.162903 0.974068,-10.937439 -2.959831,-10.22068c-2.854286,0.520226 -2.912514,0.380341 -2.336319,-5.656582c1.603645,-16.824059 6.24353,-25.26442 13.885712,-25.26442c3.965424,0 7.394699,-2.799965 6.414566,-5.235771c-0.69751,-1.73177 -2.028198,-2.167603 -5.277954,-1.7283c-2.634727,0.356064 3.156342,-5.364098 9.097824,-8.988329c8.747253,-5.335194 25.858429,-9.706236 29.123947,-7.440369m9.086914,6.33518c0,0.645081 -0.804245,0.51907 -1.81958,-0.283234c-1.000748,-0.791899 -1.81955,-1.959513 -1.81955,-2.595341c0,-0.645082 0.804245,-0.519072 1.81955,0.283232c1.000778,0.791899 1.81958,1.959513 1.81958,2.595343m26.686951,-1.439287c0,0.635828 -1.910538,1.156054 -4.245667,1.156054c-2.335098,0 -4.245636,-0.520226 -4.245636,-1.156054c0,-0.63583 1.910538,-1.156055 4.245636,-1.156055c2.335129,0 4.245667,0.520226 4.245667,1.156055m-70.685242,14.668022c0.236542,0.676292 -1.094177,1.507496 -2.956177,1.848537c-4.252945,0.779175 -4.620483,0.43121 -2.091309,-1.980328c2.113129,-2.012688 4.31723,-1.956043 5.047485,0.13179m8.820038,21.760426c0,20.263325 0.249878,23.06329 2.464905,27.55341c3.959381,8.026489 9.37561,10.229927 26.832504,10.915474l14.372147,0.564148l0,-5.83461l0,-5.83345l-12.696915,-0.394211c-17.82811,-0.553757 -16.928024,0.841606 -17.418106,-27.022781l-0.396667,-22.503769l-6.578323,0l-6.579544,0l0,22.55579m61.865204,-17.421749c0,2.768749 -1.934814,4.968719 -3.25946,3.706314c-1.032288,-0.984962 0.724213,-6.528244 2.069458,-6.528244c0.655045,0 1.190002,1.269348 1.190002,2.82193m-91.653908,8.996418c2.891907,3.932899 2.246559,5.090107 -1.14389,2.05431c-1.667938,-1.493622 -3.032616,-3.14447 -3.032616,-3.669323c0,-1.827717 2.301147,-0.937557 4.176506,1.615013m106.876381,12.209091c-1.039581,0.991898 -4.307526,-2.246208 -4.26506,-4.226536c0.03154,-1.455467 0.588333,-1.255474 2.456406,0.883228c1.329514,1.520214 2.143463,3.025398 1.808655,3.343307m-100.772346,18.575489c-0.834572,3.050827 -0.840645,3.053139 -1.885071,0.448547c-0.653816,-1.628876 -0.52282,-3.804573 0.346939,-5.780273c1.386497,-3.147934 1.398636,-3.150246 1.885063,-0.448547c0.270515,1.494781 0.114037,4.095901 -0.346931,5.780273m87.920143,-5.509758c-0.744797,1.326004 -1.595139,2.180321 -1.891113,1.899399c-0.847931,-0.809235 0.872177,-4.310921 2.119171,-4.310921c0.619873,0 0.516754,1.084381 -0.228058,2.411522m0.055817,24.75576c0,1.589577 -0.545868,2.890137 -1.213043,2.890137c-0.667175,0 -1.213043,-1.30056 -1.213043,-2.890137c0,-1.589569 0.545868,-2.890137 1.213043,-2.890137c0.667175,0 1.213043,1.300568 1.213043,2.890137m-84.609764,1.343346c-0.833359,0.321381 -2.198029,0.321381 -3.032608,0c-0.833351,-0.320229 -0.151627,-0.582664 1.516304,-0.582664c1.667938,0 2.350883,0.262436 1.516304,0.582664m19.56881,2.782616c1.209396,1.951424 1.934814,3.799957 1.612137,4.107468c-0.689011,0.657791 -5.714645,-5.19416 -5.714645,-6.655411c0,-2.095924 1.989395,-0.8601 4.102509,2.547943m41.993134,-1.235825c2.551025,1.901711 2.683258,2.264717 0.829727,2.286674c-3.116302,0.035843 -7.09874,-2.194183 -6.250824,-3.500534c1.014114,-1.565292 1.985764,-1.347961 5.421097,1.21386m-21.228256,16.184769c-1.206985,1.271667 -2.675964,2.312111 -3.263092,2.312111c-0.587112,0 -0.484009,-1.040443 0.230484,-2.312111c0.714478,-1.271667 2.182251,-2.312103 3.263092,-2.312103c1.734634,0 1.707977,0.271667 -0.230484,2.312103m-145.942432,39.22493c0.34693,20.130402 0.58226,22.145401 2.930714,25.144196c4.57196,5.840393 8.378489,7.08548 22.920448,7.501663l13.343475,0.382645l0,-4.624222l0,-4.624222l-11.332249,-0.578018c-16.148029,-0.824265 -15.961222,-0.524857 -15.961222,-25.561523l0,-19.524628l-6.139212,0l-6.137996,0l0.37604,21.884109m151.401127,-14.369751l0,7.514359l-3.63913,0c-3.350418,0 -3.63913,0.321381 -3.63913,4.046188c0,3.724808 0.288712,4.046204 3.63913,4.046204l3.63913,0l0.121323,10.693497c0.066696,5.882004 0.488846,11.946671 0.937668,13.479614c1.325851,4.514389 6.015472,6.940948 14.104034,7.298172l7.278259,0.320221l-0.021835,-4.034637c-0.015762,-3.125961 -0.56163,-4.112076 -2.426071,-4.380295c-8.32753,-1.197662 -7.862946,-0.463562 -7.862946,-12.416016l0,-10.960556l4.852173,0c3.019257,0 4.889786,-0.54567 4.952835,-1.445068c0.055817,-0.79422 0.237778,-2.61499 0.403961,-4.046204c0.272949,-2.342163 -0.220779,-2.60112 -4.952866,-2.60112l-5.256104,0l0,-7.514359l0,-7.514359l-6.065216,0l-6.065216,0l0,7.514359m43.063034,-5.777954c-6.061569,2.04274 -12.15712,8.224167 -13.854187,14.05069c-0.712036,2.443909 -1.297943,8.15596 -1.301575,12.693481c-0.013351,16.084183 8.619873,25.245926 25.135468,26.673645c4.831558,0.417343 9.437469,-0.005783 14.09314,-1.295929c11.734955,-3.250824 16.649017,-10.809113 16.747269,-25.753433c0.090973,-13.973236 -3.977585,-21.432098 -14.133163,-25.912979c-5.917236,-2.611526 -19.597931,-2.843887 -26.686951,-0.455475m56.447739,0.289001c-8.890411,4.273941 -11.789566,16.229858 -5.761963,23.761566c3.855042,4.816116 10.091309,6.582565 23.240692,6.582565c7.549957,0 9.595154,0.408081 11.593048,2.312119c2.91983,2.782623 3.033844,4.43924 0.537384,7.834564c-1.795258,2.443924 -2.705048,2.569931 -18.599609,2.569931c-9.191193,0 -16.988647,0.26474 -17.328308,0.587265c-0.33844,0.32254 -0.282654,2.534073 0.123749,4.913239l0.738739,4.325958l15.747711,0.197693c19.872101,0.249695 25.312592,-0.687851 30.016754,-5.169876c7.135101,-6.801086 5.467194,-21.03096 -2.952515,-25.193909c-2.725708,-1.346817 -7.980652,-2.169907 -16.168671,-2.532928c-6.671722,-0.295944 -13.085114,-1.011551 -14.253265,-1.589569c-2.336304,-1.158371 -3.016815,-8.401047 -0.906128,-9.643814c0.668365,-0.393051 8.856415,-0.715591 18.195648,-0.715591l16.978973,0l0,-5.132889l0,-5.131729l-18.498901,0.002319c-15.197021,0.00116 -19.249786,0.361847 -22.703339,2.023087m-35.941254,8.539795c4.537994,1.96991 6.786972,7.643829 6.786972,17.123474c0,9.560562 -2.008804,14.221786 -7.238205,16.799789c-4.473724,2.20459 -8.64415,2.223099 -14.072525,0.061264c-6.049438,-2.40921 -8.157715,-7.803375 -7.602158,-19.454086c0.410034,-8.607986 0.657486,-9.314331 4.381516,-12.485382c3.101761,-2.641586 5.102066,-3.361816 9.330734,-3.361816c2.959824,0 6.745728,0.591888 8.413666,1.316757m-169.104271,19.550034c0,16.294601 1.112358,20.330383 6.265366,22.730362c4.24929,1.979156 29.894234,3.112091 32.038895,1.415009c1.364677,-1.078598 1.726158,-5.334045 1.726158,-20.298019l0,-18.933868l-6.065216,0l-6.065208,0l0,15.606735l0,15.60675l-7.308594,0c-6.728745,0 -7.401978,-0.23468 -8.491302,-2.965286c-0.650177,-1.631195 -1.182709,-8.654221 -1.182709,-15.606735l0,-12.641464l-5.458694,0l-5.458694,0l0,15.086517m50.947807,-12.958221c0,5.559464 0.853989,5.964096 12.596245,5.964096c8.105537,0 11.856285,0.489014 13.820183,1.799973c6.254456,4.174515 1.772278,6.292404 -13.317986,6.292404c-7.702827,0 -8.739967,0.292496 -11.978806,3.37915c-4.863083,4.634628 -4.949211,11.309677 -0.209854,16.236786l3.335876,3.46817l16.376076,0.077454c9.006851,0.042786 17.331955,0.050858 18.498901,0.018494c1.876587,-0.052017 2.122833,-1.405746 2.122833,-11.68541c0,-13.863388 -1.602417,-20.756943 -5.67099,-24.405457c-2.789993,-2.500549 -4.188629,-2.723679 -19.289795,-3.073959c-15.594879,-0.363007 -16.282684,-0.282074 -16.282684,1.928299m29.113037,25.61702l0,3.46817l-9.135422,0c-7.001686,0 -9.299202,-0.404633 -9.834145,-1.734085c-1.658226,-4.115555 0.395454,-5.20224 9.834145,-5.20224l9.135422,0l0,3.468155m-22.042198,35.37413c-0.219566,4.831146 0.010902,9.02301 0.510681,9.31665c0.500992,0.292465 0.909782,-3.401123 0.909782,-8.206833c0,-4.80574 0.434273,-8.738632 0.965584,-8.738632c0.531303,0 0.934036,2.861252 0.895226,6.358307c-0.037598,3.497055 0.288704,6.358307 0.727829,6.358307c0.437904,0 0.765427,-3.121353 0.727821,-6.93634c-0.05822,-5.825363 -0.410011,-6.936325 -2.202888,-6.936325c-1.815926,0 -2.194389,1.314423 -2.534035,8.784866m11.124809,-7.050781c-0.830933,0.953735 -1.103882,1.734085 -0.606506,1.734085c0.497345,0 0.224396,0.780334 -0.606537,1.73407c-1.043213,1.197678 -1.089294,1.734085 -0.14798,1.734085c0.748444,0 1.361023,1.820786 1.361023,4.046204c0,2.225403 -0.545868,4.046188 -1.213043,4.046188c-0.667175,0 -1.213043,-1.529465 -1.213043,-3.399948c0,-1.870514 -0.513123,-3.70285 -1.141464,-4.07164c-0.67688,-0.398834 -0.858841,0.98381 -0.447624,3.399948c0.451248,2.647385 0.213493,4.07164 -0.678093,4.07164c-0.754509,0 -1.369522,0.390747 -1.368301,0.867035c0.002426,0.477448 3.141769,0.944504 6.974991,1.040451c4.97348,0.123703 5.850525,-0.04277 3.061707,-0.578033c-2.969513,-0.571075 -3.653671,-1.143341 -2.842133,-2.38031c0.588318,-0.89595 0.787247,-2.327133 0.44397,-3.179153c-0.372421,-0.927155 0.217133,-1.550262 1.467773,-1.550262c1.575745,0 1.94693,0.710968 1.510239,2.890137c-0.319031,1.589569 -0.109177,2.890137 0.46582,2.890137c0.573761,0 1.044418,-2.310944 1.044418,-5.136353c0,-4.513245 -0.293564,-5.080856 -2.426086,-4.690125c-1.334351,0.245102 -2.426086,-0.045074 -2.426086,-0.643921c0,-0.599991 1.130569,-1.090149 2.512207,-1.090149c2.234436,0 2.310852,-0.193069 0.693878,-1.734085c-1.000793,-0.953751 -2.064621,-1.734085 -2.364227,-1.734085c-0.299622,0 -1.223969,0.780334 -2.054901,1.734085m13.274323,1.445068c-2.691727,5.11554 -2.737823,5.273911 -1.30159,4.427689c0.925552,-0.54451 1.370743,0.593063 1.370743,3.500534c0,2.368759 0.361496,3.961807 0.80304,3.541c0.441544,-0.420807 0.731461,-2.595352 0.642899,-4.832321c-0.088547,-2.236954 0.355423,-5.360611 0.986221,-6.942108c1.55632,-3.898209 -0.417297,-3.658905 -2.501312,0.305206m5.888123,0.295944c-1.136627,1.904022 -1.819565,3.461227 -1.516312,3.461227c0.963165,0 4.783035,-4.186066 5.098419,-5.587204c0.577423,-2.567596 -1.524796,-1.320221 -3.582108,2.125977m16.681763,-2.030029c-0.258377,0.795364 -0.70842,4.826538 -0.998337,8.959427c-0.431839,6.12709 -0.294754,6.927078 0.742386,4.335205c0.879456,-2.198807 2.133743,-3.179153 4.069763,-3.179153c2.301147,0 2.798492,-0.617325 2.798492,-3.46817c0,-2.697067 -0.538605,-3.468155 -2.426086,-3.468155c-3.328598,0 -3.075058,-3.1884 0.303253,-3.80806c2.314499,-0.425415 2.216232,-0.524841 -0.644135,-0.658936c-1.855957,-0.0867 -3.585739,0.493637 -3.845337,1.287842m9.697067,0c-0.262024,0.795364 -0.841858,4.046188 -1.288239,7.225342c-0.445206,3.179153 -1.371948,6.431137 -2.058548,7.225342c-0.753296,0.871658 -0.784836,1.445068 -0.081268,1.445068c1.487183,0 3.982422,-5.164093 3.982422,-8.242676c0,-4.675079 3.032593,-1.353729 3.132065,3.430023c0.144363,6.994125 1.720108,7.432281 1.720108,0.477448c0,-3.58609 0.590744,-6.128235 1.516296,-6.521317c0.834579,-0.354889 0.424576,-0.598816 -0.90979,-0.541016c-4.457916,0.189575 -5.458679,-0.151459 -5.458679,-1.863556c0,-0.936417 1.774689,-2.18959 3.942383,-2.786102l3.942383,-1.085541l-3.979996,-0.10405c-2.206528,-0.0578 -4.193481,0.539902 -4.459137,1.341034m13.812912,-0.578033c-0.875809,8.87735 -1.541763,12.738571 -2.489136,14.425262c-0.710846,1.264725 -0.715714,2.048523 -0.013351,2.048523c1.664291,0 3.800461,-6.596436 3.800461,-11.732803c0,-4.284332 0.14798,-4.446182 3.942383,-4.294739c2.850662,0.114456 3.186661,0.295944 1.213043,0.658951c-1.937225,0.354904 -2.72934,1.315582 -2.72934,3.310944c0,1.544495 0.494919,2.809204 1.099014,2.809204c0.605301,0 0.81395,-1.040436 0.465805,-2.312103c-0.556793,-2.028885 -0.037598,-2.312103 4.245651,-2.312103c4.282043,0 4.802429,0.283218 4.245636,2.312103c-0.371185,1.352585 -0.037598,2.312103 0.80426,2.312103c2.793625,0 0.735107,-5.090103 -2.369064,-5.857727c-2.80455,-0.693634 -2.712357,-0.791885 1.213043,-1.307495c2.594696,-0.341034 0.82608,-0.628891 -4.54892,-0.742188c-4.836411,-0.10173 -8.833374,0.20578 -8.879486,0.682068m-63.599831,2.601135c0.412422,0.635834 0.98983,1.156052 1.284615,1.156052c0.294769,0 0.534943,-0.520218 0.534943,-1.156052c0,-0.635834 -0.578613,-1.156067 -1.284622,-1.156067c-0.705986,0 -0.947372,0.520233 -0.534935,1.156067m30.706963,0.063568c1.688553,0.645096 2.460037,1.608078 1.93602,2.417313c-0.542236,0.83699 -0.343292,1.032364 0.527679,0.519073c2.71843,-1.60112 1.506592,-4.158325 -1.934799,-4.083176c-3.271591,0.07283 -3.282501,0.094788 -0.5289,1.14679m-3.413498,7.219574c0,2.734055 -0.655029,5.595306 -1.455658,6.358307c-1.13176,1.078598 -0.997131,1.387253 0.606522,1.387253c1.690994,0 2.06218,-1.144501 2.06218,-6.358292c0,-3.49707 -0.272949,-6.358307 -0.606522,-6.358307c-0.333588,0 -0.606522,2.236969 -0.606522,4.971039m17.980942,-2.273972c0.264435,1.299423 -0.427002,1.927155 -2.122833,1.927155c-1.382858,0 -2.514633,-0.693634 -2.514633,-1.541016c0,-3.541 3.929047,-3.868164 4.637466,-0.386139m-36.505325,-0.842743c-0.402725,0.383804 -1.449585,0.425415 -2.324188,0.091309c-0.968018,-0.368774 -0.680511,-0.642761 0.732681,-0.698257c1.278534,-0.049713 1.994247,0.223129 1.591507,0.606949m63.119492,2.240433c0.657455,3.273926 0.617432,3.279709 2.59227,-0.337585c1.232452,-2.258911 1.117218,-2.60112 -0.880676,-2.60112c-1.809845,0 -2.174988,0.626587 -1.711594,2.938705m-49.224075,2.258926c-0.761795,1.591888 -0.913422,2.89476 -0.338455,2.89476c1.006851,0 2.821548,-4.742142 2.084015,-5.446182c-0.198944,-0.188431 -0.984985,0.958374 -1.74556,2.551422m8.975281,-0.57341c0.898895,3.21962 1.472656,4.087799 2.225952,3.369888c0.278992,-0.265884 -0.289917,-1.782623 -1.263977,-3.372192l-1.769836,-2.887833l0.807861,2.890137m44.175415,-0.701721c0,0.249695 0.846695,0.764145 1.882629,1.143341c1.07962,0.394211 1.566055,0.199982 1.141464,-0.45433c-0.712036,-1.099426 -3.024094,-1.625427 -3.024094,-0.689011m-10.108276,3.784927c-0.445206,0.423111 -0.809113,1.307495 -0.809113,1.965286c0,0.723694 0.565277,0.655487 1.435028,-0.173416c0.789688,-0.752594 1.153595,-1.636978 0.809113,-1.965286c-0.344528,-0.328323 -0.991058,-0.250854 -1.435028,0.173416m3.306747,1.057785c0.405151,1.005768 0.736313,2.046219 0.736313,2.312103c0,0.2659 1.637619,0.483231 3.63913,0.483231c2.001511,0 3.63913,-0.487839 3.63913,-1.084381c0,-0.596512 -1.500549,-0.987274 -3.335876,-0.867035c-2.111893,0.137573 -3.224274,-0.313293 -3.032608,-1.227722c0.167404,-0.79422 -0.300827,-1.445068 -1.039566,-1.445068c-0.738754,0 -1.011688,0.823105 -0.606522,1.828873m9.834137,0.483231c0.41243,0.635834 0.989838,1.156052 1.284622,1.156052c0.294754,0 0.534943,-0.520218 0.534943,-1.156052c0,-0.635834 -0.578629,-1.156052 -1.284622,-1.156052c-0.706009,0 -0.947372,0.520218 -0.534943,1.156052" />
  </g>
  <rect
     style="fill:#000080;fill-rule:evenodd"
     id="rect149"
     width="56.419418"
     height="21.374756"
     x="254.05444"
     y="107.30005"
     rx="7.5590553"
     ry="7.5590553" />
  <text
     xml:space="preserve"
     style="font-style:normal;font-weight:normal;font-size:22.5645px;line-height:1.25;font-family:sans-serif;fill:#000000;fill-opacity:1;stroke:none;stroke-width:0.846169"
     x="247.65451"
     y="129.99742"
     id="text1153"
     transform="scale(1.0377403,0.96363223)"><tspan
       sodipodi:role="line"
       id="tspan1151"
       x="247.65451"
       y="129.99742"
       style="font-size:22.5645px;fill:#ffffff;stroke-width:0.846169">SOC</tspan></text>
</svg>
