<?xml version="1.0"?>
<svg width="500" height="230" xmlns="http://www.w3.org/2000/svg" xmlns:svg="http://www.w3.org/2000/svg">
 <!-- Created with SVG-edit - https://github.com/SVG-Edit/svgedit-->

 <g class="layer">
  <title>Layer 1</title>
  <rect fill="#f9f9f9" height="131.000004" id="svg_8" stroke="#dbffdb" stroke-width="5" width="375.000023" x="11.833308" y="10.833332"/>
  <rect fill="#f9f9f9" height="60" id="svg_7" stroke="#dbffdb" stroke-width="5" width="372.999999" x="14.000018" y="150.333313"/>
  <path d="m14.755725,20.152903c0.84374,11.163819 4.047217,21.391464 8.749965,30.372104l8.749965,-13.649946l-2.527766,-0.933332l-3.499986,-1.244439l1.827769,-3.188875l6.416642,-11.355511l-19.71659,0zm26.872117,0l-6.338863,11.199956l2.722213,0.97222l3.694429,1.322215l-2.099992,3.266655l-12.59995,19.716586c9.065658,13.760044 22.322789,23.25926 37.527635,25.316571l0,40.249833l-24.888793,0l0,9.955517l62.221977,0l0,-9.955517l-24.888793,0l0,-40.249833c26.524111,-3.546669 47.334489,-29.468759 49.777579,-61.794203l-85.127439,0l-0.000004,0z" fill="none" id="svg_1" stroke="#bf0000" stroke-width="5"/>
  <path d="m138.833693,20.157923c0.85881,11.363218 4.119505,21.773542 8.90625,30.914586l8.90625,-13.893751l-2.572915,-0.950003l-3.5625,-1.266666l1.860415,-3.245833l6.531252,-11.558334l-20.068752,0zm27.352086,0l-6.452083,11.400001l2.770835,0.989585l3.760416,1.345831l-2.1375,3.325001l-12.825001,20.068748c9.227581,14.005815 22.721502,23.674699 38.197924,25.768756l0,40.968744l-25.333337,0l0,10.133334l63.333338,0l0,-10.133334l-25.333337,0l0,-40.968744c26.997864,-3.610017 48.179941,-29.995108 50.666667,-62.897923l-86.647919,0l-0.000004,0z" fill="none" id="svg_2" stroke="#007fff" stroke-width="5"/>
  <path d="m268.935667,20.154421c0.83621,11.163868 4.011099,21.391558 8.671879,30.372237l8.671879,-13.650006l-2.505208,-0.933336l-3.468752,-1.244445l1.811457,-3.188889l6.359379,-11.355561l-19.540635,0zm26.632305,0l-6.282294,11.200005l2.69792,0.972224l3.66146,1.322221l-2.081251,3.266669l-12.487506,19.716673c8.984754,13.760104 22.123576,23.259362 37.192731,25.316683l0,40.25001l-24.66668,0l0,9.95556l61.666696,0l0,-9.95556l-24.66668,0l0,-40.25001c26.287404,-3.546685 46.912066,-29.468889 49.333353,-61.794475l-84.367744,0l-0.000004,0z" fill="none" id="svg_3" stroke="#999999" stroke-width="5"/>
  <text fill="#000000" font-family="serif" font-size="24" id="svg_4" stroke="#007fff" stroke-width="0" text-anchor="middle" x="69" xml:space="preserve" y="189.666656">红酒</text>
  <text fill="#000000" font-family="serif" font-size="24" id="svg_5" stroke="#007fff" stroke-width="0" text-anchor="middle" x="194" xml:space="preserve" y="190.333313">啤酒</text>
  <text fill="#000000" font-family="serif" font-size="24" id="svg_6" stroke="#007fff" stroke-width="0" text-anchor="middle" x="326" xml:space="preserve" y="189.333313">白酒</text>
  <text fill="#000000" font-family="serif" font-size="24" id="svg_9" stroke="#dbffdb" stroke-width="0" text-anchor="middle" x="442" xml:space="preserve" y="85.333313">变量的值</text>
  <text fill="#000000" font-family="serif" font-size="24" id="svg_10" stroke="#dbffdb" stroke-width="0" text-anchor="middle" x="442" xml:space="preserve" y="189.333313">变量名</text>
 </g>
</svg>